<?xml version="1.0" encoding="UTF-8"?>
<svg id="Layer_1" data-name="Layer 1" xmlns="http://www.w3.org/2000/svg" viewBox="0 0 418.77 418.77">
  <defs>
    <style>
      .cls-1 {
        fill: none;
      }

      .cls-1, .cls-2 {
        stroke-width: 0px;
      }

      .cls-2 {
        fill: #fff;
      }
    </style>
  </defs>
  <rect class="cls-1" width="418.77" height="418.77"/>
  <g>
    <path class="cls-2" d="M223.39,314.98c-.6.06-1.18.04-1.73-.06.27-.17.53-.35.79-.53.29.25.59.45.94.59Z"/>
    <path class="cls-2" d="M270.28,282.99c-.36-.13-.71-.27-1.05-.42.04-.05.09-.1.13-.16.25.24.55.44.92.58Z"/>
    <path class="cls-2" d="M333.95,70.41c-4.04-1.73-6.11-3.14-10.95-4.84-9.73-3.32-19.55-6.18-29.86-7.23-24.16-2.45-47.51,1.39-70.13,9.58-44.83,16.24-81.97,43.63-113.1,79.4-18.12,20.83-33.62,43.43-43.71,69.29-10.03,25.71-13.6,51.76-2.17,78.13.77,1.77,1.07,3.89,3.5,5.01,2-8.99,3.86-17.9,5.99-26.74,2.55-10.66,4.94-21.33,10.98-30.83,12.96-20.37,37.7-28.79,60.25-20.36,2.82,1.05,3.42,2.05,2.51,5.02-2.53,8.24-4.59,16.62-6.83,24.94-.31.06-.71.27-.88.15-15.43-10.99-30.97-.77-35.24,13.75-4.83,16.44-8.19,33.24-12.02,49.93-2.56,11.13-.03,11.5-12.85,7.15-23.1-7.85-36.2-24.51-40.94-48-5.58-27.67,1.18-53.64,12.65-78.45,17.43-37.69,43.96-68.29,76.1-94.3,23.24-18.8,48.66-33.73,76.94-43.49,27.95-9.64,56.55-13.77,85.97-8.02,12.5,2.44,24.27,6.91,34.95,13.99,2.86,2.12,5.42,3.53,8.84,5.92Z"/>
    <path class="cls-2" d="M213.45,289.99c.82-7.89,3.07-15.02,4.8-22.23,5.34-22.31,10.57-44.65,16.22-66.88,4.34-17.07,13.75-30.54,30.06-38.32,20.51-9.78,44.48-4.27,56.97,12.93.78,1.07,1.51,2.19,2.17,3.34,4.6,8.02,4.43,8.96-1.31,16.15-6.55,8.19-13.47,16.04-20.8,23.54-.78.8-1.33,1.95-2.85,2.01.81-5.27,2.59-10.31,2.75-15.67.23-7.48-2.07-13.57-9.04-16.91-7.35-3.52-14.25-1.98-20.5,3.01-6.11,4.88-9.66,11.34-11.42,18.83-4.13,17.64-8.27,35.28-12.23,52.96-.74,3.29-2.18,5.7-4.88,7.72-8.66,6.48-17.69,12.42-26.8,18.24-.8.51-1.77.73-3.14,1.28Z"/>
    <path class="cls-2" d="M225.68,198.41c-2.31,7.58-4.46,15.95-6.19,24.42-.51,2.49-1.51,1.73-3.03.64-10.99-7.86-23.98-4.95-30.6,6.77-2.3,4.07-4.03,8.36-5.19,12.91-5.58,21.91-10.46,43.97-15.08,66.09-.76,3.64-2.16,5.7-5.92,6.88-7.46,2.34-14.93,4.64-22.53,6.47-2.09.5-4.03,1.11-3.14-2.58,7.18-29.55,14.13-59.16,21.34-88.71,4.16-17.04,14.14-29.53,30.37-36.58,12.28-5.34,24.8-5.91,37.37-.82,3.01,1.22,2.97,1.3,2.6,4.51Z"/>
    <path class="cls-2" d="M361.85,131.8c-7.03,2.58-13.94,5.46-20.89,8.25-2.12.85-3.28.65-3.77-2.01-6.31-33.76-35.12-51.1-66.06-53.63-29.03-2.37-56.14,4.77-82.26,16.69-11.75,5.37-23.07,11.54-34.04,18.35-3.74,2.68-7.48,5.36-11.22,8.04-2.86,1.86-4.03,2.87-6.32,4.44,1.83-2.25,3.26-3.99,5.12-5.69,3.31-2.75,6.61-5.5,9.92-8.25,9.42-8.14,19.65-15.18,30.29-21.57,23.78-14.26,49.12-24.45,76.73-28.47,19.22-2.79,38.2-2.23,56.67,4.41,25.86,9.28,41.87,27.4,48.33,54.04.63,2.61.47,4.32-2.5,5.4Z"/>
    <path class="cls-2" d="M270.28,282.99c-.36-.13-.71-.27-1.05-.42.04-.05.09-.1.13-.16.25.24.55.44.92.58Z"/>
    <path class="cls-2" d="M203.01,129.07c14.07-.04,25.99,11.96,26,26.18.01,14.48-11.53,26.48-25.55,26.59-14.48.11-26.23-11.72-26.22-26.39.01-14.44,11.64-26.34,25.77-26.38Z"/>
    <path class="cls-2" d="M282.16,104.21c10.92-1.2,22.87,11.45,22.49,22.11-.42,12.1-10.23,22.81-21.89,22.83-12.94.02-22.47-9.45-22.48-22.34,0-12.4,9.87-22.6,21.87-22.6Z"/>
    <path class="cls-2" d="M125.25,209.43c-12.06.1-22.2-9.92-22.4-22.12-.2-11.9,10.13-22.71,21.81-22.81,11.9-.1,22.42,10.13,22.65,22.05.25,12.59-9.59,22.79-22.06,22.89Z"/>
    <path class="cls-2" d="M223.39,314.98c-.6.06-1.18.04-1.73-.06.27-.17.53-.35.79-.53.29.25.59.45.94.59Z"/>
    <path class="cls-2" d="M270.28,282.99c-.36-.13-.71-.27-1.05-.42.04-.05.09-.1.13-.16.25.24.55.44.92.58Z"/>
    <path class="cls-2" d="M223.39,314.98c-.6.06-1.18.04-1.73-.06.27-.17.53-.35.79-.53.29.25.59.45.94.59Z"/>
    <path class="cls-2" d="M406.2,124.3c-.05,0-.1-.02-.15-.02-.74-.22-2.01.19-4.13,1.04-20.22,8.08-40.38,16.32-60.58,24.45-2.65,1.07-2.54,2.26-.46,3.74,4.07,2.88,8.06,5.89,12.29,8.51,2.75,1.71,3.11,3.08,1.21,5.84-13.24,19.18-28.11,37.02-43.55,54.46-13.05,14.74-28.03,27.38-42.34,40.76-15.91,12.29-32.12,24.16-49.16,34.85-2.73,1.46-5.5,2.84-8.17,4.4-10.59,6.16-21.81,11.07-32.72,16.61-7.66,2.74-15.25,5.69-23,8.18-19.16,6.15-38.68,9.48-58.96,7.97-39.54-2.97-66.25-30.51-68-70.11-1.27-28.73,6.13-55.28,19.16-80.55,1.64-2.89,2.96-5.47,4.46-8.46-2.1,2.3-3.51,4.4-5.57,7.31-9.05,14-17.08,28.56-23.11,44.11-9.13,23.58-14.5,47.82-10.46,73.22,5.87,36.8,31.54,61.68,69.76,68.34,31.23,5.43,60.98-1.09,90.12-11.43,45.77-16.25,85.91-42.15,122.64-73.45,33.05-28.17,62.12-60.13,87.32-95.52,1.63-2.29,2.94-2.78,5.13-1.12,3.98,3.01,7.99,5.99,12,8.95.92.68,1.9,1.77,3.07,1.3,1.3-.51.87-2,.92-3.12.83-19.6,1.85-39.12,2.68-58.73.42-2.91.42-5.4.56-8.2.03-.79.06-3.06-.96-3.33ZM221.66,314.92c.27-.17.53-.35.79-.53.29.25.59.45.94.59-.6.06-1.18.04-1.73-.06ZM269.23,282.57s.09-.1.13-.16c.25.24.55.44.92.58-.36-.13-.71-.27-1.05-.42Z"/>
    <path class="cls-2" d="M221.66,314.92c.27-.17.53-.35.79-.53.29.25.59.45.94.59-.6.06-1.18.04-1.73-.06ZM269.23,282.57s.09-.1.13-.16c.25.24.55.44.92.58-.36-.13-.71-.27-1.05-.42Z"/>
  </g>
</svg>