<?xml version="1.0" encoding="UTF-8"?>
<svg id="Layer_1" data-name="Layer 1" xmlns="http://www.w3.org/2000/svg" viewBox="0 0 300 300">
  <rect width="300" height="300" style="fill: #fff; stroke-width: 0px;"/>
  <g>
    <path d="M47.95,193h.01s0,0,0,0v-.02l-.02.03ZM73.85,142.97s0-.03,0-.04l-.02.06h.03s0,0,0-.02ZM123.04,154.87h0s0,.02.01.02h0s0-.02-.01-.02ZM128.82,169.56h.02s0-.01,0-.02c0,0-.01.01-.02.02ZM176.69,164.37s0,.02,0,.03c0,0,0-.01,0-.02,0,0,0,0,0,0ZM200.89,183.33h0s0,0,0,0h0s0,0,0,0ZM232.25,152.91h0s0,.02,0,.02h0v-.02ZM259.19,199.91h0v.03s.01,0,.02,0l-.02-.04Z" style="fill: #1b3d57; stroke-width: 0px;"/>
    <path d="M259.21,199.95s-.01,0-.02,0v-.02h0s.02.03.02.03Z" style="fill: #1b3d57; stroke-width: 0px;"/>
    <path d="M47.97,192.99h0s-.01,0-.01,0c0,0,0,0,.01,0Z" style="fill: #1b3d57; stroke-width: 0px;"/>
    <path d="M123.06,154.89h0s0,0-.01,0h0s0,0,.01,0Z" style="fill: #1b3d57; stroke-width: 0px;"/>
    <path d="M128.84,169.54s0,.01,0,.02h-.02s.01-.01.02-.02Z" style="fill: #1b3d57; stroke-width: 0px;"/>
    <rect x="200.89" y="183.33" width="0" height="0" style="fill: #1b3d57; stroke-width: 0px;"/>
    <rect x="200.89" y="183.33" width="0" height="0" style="fill: #1b3d57; stroke-width: 0px;"/>
    <path d="M70.6,217.44c0,5.52-3.88,9.53-9.19,9.5-5.76-.03-9.41-3.72-9.42-9.49,0-4.95,4.32-9.09,9.54-9.11,4.67-.02,9.07,4.4,9.07,9.11Z" style="fill: #1b3d57; stroke-width: 0px;"/>
    <path d="M123.06,154.89h0s0,0-.01,0h0s0,0,.01,0Z" style="fill: #1b3d57; stroke-width: 0px;"/>
    <path d="M232.27,152.93h0s0,0,0,0h0s.01,0,.01,0Z" style="fill: #1b3d57; stroke-width: 0px;"/>
    <path d="M210.06,201.54c-.26.99-.97,1.82-2.22,1.25-1.53-.7-3-1.6-4.39-2.57-.71-.5-1.3-1.36-.61-2.31.66-.93,1.59-1.11,2.57-.5,1.3.81,2.59,1.66,3.85,2.54.45.31.93.71.79,1.59Z" style="fill: #1b3d57; stroke-width: 0px;"/>
    <path d="M83.77,206.65c-1.21,1.23-2.59,2.2-4.14,2.94-.85.41-1.57.16-2.15-.56-.54-.67-.54-1.36.06-1.96,1.4-1.38,3.12-2.33,4.91-3.06,1-.41,1.69.25,1.84,1.33.08.54-.17.95-.52,1.31Z" style="fill: #1b3d57; stroke-width: 0px;"/>
    <path d="M95.64,198.87c-.5,1.04-4.5,3.6-5.87,3.55-1.35-.17-1.4-1.34-.77-2.25,1.22-1.78,3.14-2.75,5.12-3.54.63-.25,1.05.22,1.43.67.44.51.37,1.01.1,1.57Z" style="fill: #1b3d57; stroke-width: 0px;"/>
    <path d="M220.18,221.73c-.07.92-.64,1.67-1.74,1.69-1.29.03-2.58.03-3.87.05-1.11.01-1.9-.35-1.94-1.62-.05-1.37.71-1.86,1.97-1.82.56.02,1.13,0,1.7,0v.05c.73,0,1.46-.05,2.17,0,.97.09,1.79.58,1.71,1.63Z" style="fill: #1b3d57; stroke-width: 0px;"/>
    <path d="M183.92,221.69c.01,2.36-2.24,1.7-3.91,1.82-1.22-.37-3.57.88-3.58-1.77,0-2.66,2.31-1.65,3.71-1.7,1.45-.05,3.78-.81,3.79,1.64Z" style="fill: #1b3d57; stroke-width: 0px;"/>
    <path d="M98.03,221.64c.03,1.04-.43,1.74-1.52,1.79-1.29.06-2.58.03-3.88.05-1.26.02-1.96-.49-2.02-1.84-.06-1.53.88-1.68,2.04-1.62.49.02.97,0,1.46,0v.05c.81,0,1.62-.03,2.42,0,.97.04,1.46.6,1.49,1.55Z" style="fill: #1b3d57; stroke-width: 0px;"/>
    <path d="M122.11,221.75c-.02,1.41-.95,1.72-2.12,1.74-.56,0-1.13,0-1.7,0v-.02c-.73,0-1.46.07-2.18-.01-1.07-.12-1.49-.83-1.43-1.87.05-.97.54-1.51,1.51-1.54,1.29-.04,2.58-.02,3.87-.05,1.23-.03,2.06.38,2.04,1.77Z" style="fill: #1b3d57; stroke-width: 0px;"/>
    <path d="M208.12,221.77c-.03,1.27-1.06,1.71-2.24,1.71-1.05,0-2.11-.02-3.16,0-1.28.03-2.08-.62-2.11-1.83-.03-1.22.96-1.56,2.02-1.6.65-.02,1.3,0,1.95,0v-.05c.4,0,.81.02,1.21,0,1.31-.08,2.37.33,2.33,1.78Z" style="fill: #1b3d57; stroke-width: 0px;"/>
    <path d="M110.19,221.6c.02,2.5-2.22,1.72-3.71,1.82-.65.05-1.3.04-1.95-.05-.97-.14-1.63-.57-1.59-1.75.04-1.16.64-1.58,1.69-1.58h2.2c1.06.33,3.34-.93,3.36,1.55Z" style="fill: #1b3d57; stroke-width: 0px;"/>
    <path d="M221.24,209.4c-.44.59-1.2.62-1.78.41-1.83-.68-3.47-1.71-4.85-3.12-.46-.46-.47-.98-.19-1.55.27-.58.69-.87,1.87-.79,1.5.71,3.46,1.65,4.99,3.23.44.45.39,1.27-.03,1.82Z" style="fill: #1b3d57; stroke-width: 0px;"/>
    <path d="M86.05,221.79c-.06,1.43-1.16,1.79-2.46,1.71-.98-.06-1.96-.03-2.93-.02-1.31.01-2.06-.72-2.01-1.93.04-1.18,1.02-1.54,2.12-1.51.57,0,1.14,0,1.71,0h0c.41-.01.82,0,1.23-.01,1.25-.01,2.42.25,2.35,1.77Z" style="fill: #1b3d57; stroke-width: 0px;"/>
    <path d="M176.7,164.38s0,.01,0,.02v-.03s0,0,0,0Z" style="fill: #1b3d57; stroke-width: 0px;"/>
    <path d="M232.26,152.93s0,0,0,0h0s0,0,0,0Z" style="fill: #1b3d57; stroke-width: 0px;"/>
    <path d="M47.97,192.96v.02s0,0,0,0h0s-.01,0-.01,0l.02-.03Z" style="fill: #1b3d57; stroke-width: 0px;"/>
    <path d="M128.84,169.54s0,.01,0,.02h-.02s.01-.01.02-.02Z" style="fill: #1b3d57; stroke-width: 0px;"/>
    <path d="M237.39,208.31c-4.75-.03-9.14,4.29-9.16,8.97,0,5.66,3.73,9.59,9.15,9.61,5.67,0,9.51-3.87,9.45-9.57-.04-4.8-4.43-8.98-9.44-9.01ZM221.27,207.57c-1.52-1.58-3.49-2.52-4.99-3.23-1.18-.08-1.59.21-1.87.79-.28.58-.26,1.09.19,1.55,1.38,1.41,3.02,2.44,4.85,3.12.58.22,1.34.18,1.78-.41.42-.56.47-1.37.03-1.82ZM218.47,220.1c-.72-.06-1.45,0-2.17,0v-.05c-.57,0-1.13.01-1.7,0-1.26-.04-2.02.45-1.97,1.82.04,1.27.83,1.63,1.94,1.62,1.29-.02,2.58-.02,3.87-.05,1.09-.02,1.66-.77,1.74-1.69.08-1.05-.74-1.54-1.71-1.63ZM209.26,199.95c-1.26-.89-2.55-1.73-3.85-2.54-.98-.61-1.91-.43-2.57.5-.69.96-.1,1.81.61,2.31,1.39.97,2.85,1.87,4.39,2.57,1.25.57,1.96-.26,2.22-1.25.13-.88-.34-1.27-.79-1.59ZM205.79,219.99c-.4.02-.81,0-1.21,0v.05c-.65,0-1.3-.02-1.95,0-1.06.04-2.05.38-2.02,1.6.03,1.21.82,1.86,2.11,1.83,1.05-.03,2.11,0,3.16,0,1.18,0,2.2-.44,2.24-1.71.04-1.45-1.02-1.86-2.33-1.78ZM195.36,220.18c-2.07-.04-4.14-.07-6.22-.11h0c-.98,2.74-.61,3.34,2.16,3.36,1.35,0,2.71-.05,4.06-.09.67-1.05.65-2.1,0-3.16ZM180.13,220.05c-1.39.05-3.72-.96-3.71,1.7.01,2.64,2.36,1.39,3.58,1.77,1.67-.12,3.93.54,3.91-1.82-.01-2.45-2.34-1.7-3.79-1.64ZM169.45,220.05c-1.53.03-3.08-.19-4.6.22-.26,1.25-.82,2.84,1.05,3.07,1.93.23,4.01.59,5.87-.54.37-1.88-.45-2.79-2.33-2.75ZM149.49,212.77c-4.6-.03-8.62,3.73-8.72,8.16-.1,4.67,3.54,8.4,8.26,8.46,4.78.06,8.25-3.29,8.27-7.99.02-4.81-3.41-8.6-7.81-8.63ZM130.49,219.93c-1.18.53-3.43-.78-3.52,1.69-.1,2.72,2.23,1.67,3.62,1.78,1.46.12,3.53.46,3.54-1.76,0-2.46-2.27-1.25-3.64-1.71ZM120.07,219.98c-1.29.03-2.58,0-3.87.05-.96.03-1.46.57-1.51,1.54-.06,1.04.35,1.75,1.43,1.87.72.08,1.45.01,2.18.01v.02c.57,0,1.13,0,1.7,0,1.17-.01,2.1-.32,2.12-1.74.02-1.39-.81-1.8-2.04-1.77ZM106.83,220.05h-2.2c-1.05,0-1.65.42-1.69,1.58-.03,1.17.62,1.61,1.59,1.75.64.09,1.3.1,1.95.05,1.5-.11,3.74.67,3.71-1.82-.02-2.48-2.3-1.23-3.36-1.55ZM96.53,220.08c-.8-.03-1.61,0-2.42,0v-.05c-.49,0-.97.02-1.46,0-1.16-.06-2.1.09-2.04,1.62.05,1.35.76,1.86,2.02,1.84,1.29-.02,2.59,0,3.88-.05,1.09-.05,1.55-.75,1.52-1.79-.03-.96-.52-1.52-1.49-1.55ZM95.54,197.3c-.38-.45-.8-.92-1.43-.67-1.98.79-3.9,1.76-5.12,3.54-.63.91-.58,2.08.77,2.25,1.37.05,5.37-2.51,5.87-3.55.27-.56.34-1.06-.1-1.57ZM83.7,220.02c-.41,0-.81,0-1.23,0h0c-.57.01-1.14.02-1.71.01-1.1-.03-2.07.33-2.12,1.51-.05,1.21.7,1.94,2.01,1.93.98,0,1.96-.04,2.93.02,1.3.08,2.4-.28,2.46-1.71.07-1.52-1.11-1.78-2.35-1.77ZM84.29,205.34c-.16-1.08-.84-1.74-1.84-1.33-1.79.73-3.51,1.68-4.91,3.06-.6.6-.61,1.29-.06,1.96.58.72,1.3.97,2.15.56,1.54-.75,2.93-1.72,4.14-2.94.35-.36.6-.76.52-1.31ZM61.53,208.34c-5.21.02-9.54,4.16-9.54,9.11,0,5.77,3.66,9.46,9.42,9.49,5.31.03,9.19-3.98,9.19-9.5,0-4.71-4.4-9.13-9.07-9.11ZM201.61,181.59c.11-.06.24-.1.36-.13-.13.03-.25.07-.36.13Z" style="fill: #1b3d57; stroke-width: 0px;"/>
    <path d="M176.69,164.37s0,.02,0,.03c0,0,0-.01,0-.02,0,0,0,0,0,0Z" style="fill: #1b3d57; stroke-width: 0px;"/>
    <path d="M38.8,201.92c-1.07,2.41-.98,4.98-.98,7.53,0,4.64.07,9.27,0,13.91-.04,2.7.17,5.34.9,7.94,2.62,5.4,6.57,9.22,12.58,10.61.89.02,1.77.05,2.67.07,1.5,0,3,0,4.49,0,1.6,0,3.2,0,4.8.01.32-.43.64-.44.96,0,.81.03,1.62.08,2.44.08,42.06,0,84.12,0,126.18,0,7.74,0,15.48-.05,23.23-.08h.23s.24,0,.24,0c3.6,0,7.2,0,10.8,0,.32,0,.64,0,.96,0h3.43c2.45,0,4.9,0,7.35,0,2.28,0,4.57,0,6.85-.01.95-.07,1.9-.14,2.85-.21,3.36-1.04,6.35-2.67,8.53-5.53.29-.34.58-.68.87-1.01,1.76-1.61,2.34-3.84,3.15-5.95.69-4.7.05-9.43.39-14.14v-.48c0-2.29,0-4.58,0-6.87,0-.32-.01-.64-.02-.97-.12-.79-.24-1.59-.36-2.38-.57-1.16-.65-2.55-1.58-3.55-.06-.3-.26-.37-.32-.67-.12-.06-.13-.24-.24-.31l.02.04s-.01,0-.02,0v-.02c-.19-.29-.36-.57-.54-.86-.14-.2-.27-.39-.4-.59-.32-.79-.85-1.41-1.55-1.88-.18-.17-.35-.34-.53-.52-.41-.45-.81-.9-1.22-1.35-.8-.51-1.61-1.01-2.41-1.51-.26-.12-.53-.23-.79-.35-.79-.28-1.58-.56-2.37-.84-5.58-.87-11.2-.38-16.8-.43-9.36-.09-18.71,0-28.07-.03-.76,0-1.9.55-2.17-.85-.48-2.46-.95-4.92-1.43-7.38h0s0,0,0,0h0c9.88,0,19.74,0,29.62,0,1.95,0,4.43.64,5.7-.31,1.36-1.03.25-3.66.48-5.57l-.37-8.42c-.05-.65-.04-1.21-.09-1.86.05-.16-.05-.34,0-.51-.07-4.94-1.46-9.5-3.95-13.73h0s0,0,0,0h0s.01,0,.01,0c-1.99-4.7-5.43-8.14-9.56-10.98l-.07-.05c-5.64-3.99-11.92-6.1-18.81-6.4-4.57-.42-9.14-.44-13.71,0-4.05.45-8.14.69-11.81,2.75-1.46.34-1.41,1.45-1.36,2.6.25,5.33-.28,10.54-2.53,15.46-.13.19-.21.38-.34.56-.01.14-.14.25-.15.39-.14.19-.24.38-.37.57-.03.1-.1.19-.14.33-.56.74-1.12,1.48-1.68,2.21-.27.43-.44.86-.17,1.36,1.91.51,3.39,1.85,5.15,2.65,0,0,0-.03,0-.03,0,0,0,0,0,0,0,0,0,.01,0,.02.05.03.11.05.16.09.1.07.21.15.31.22.05.03.11.07.16.11.18.13.36.25.53.38.5.41,1.01.82,1.51,1.23.04.1.11.16.21.2.23.18.46.37.68.55,8,7.38,12.11,16.63,13.29,27.34.2,1.78.02,2.61-2.14,2.56-5.32-.12-5.32,0-6.28-5.2-1.63-8.81-6.02-15.89-13.31-21.13-11.77-6.92-24.2-7.26-37.02-3.75-.16.29-.35.49-.7.25l-.19-.05-.18.09h0c-1.75.5-3.47,1.07-4.9,2.27,0,0,0,.01,0,.02h-.02s.01-.01.02-.02c-9.27,4.65-13.82,12.67-16.01,22.4-.38,1.71.51,4.15-1.34,4.95-1.58.68-3.69.1-5.57.16-1.25.04-1.5-.53-1.4-1.65,1.35-15.26,8.27-26.82,22.32-33.66,0-.31.02-.62.03-.93-1.79-1.64-2.54-3.95-3.82-5.92,0,0,0,0-.01-.01h0s0,0,.01,0c-1.54-4.51-2.36-9.12-1.97-13.9.18-2.2-.91-3.31-2.91-3.78-2.61-.61-5.22-1.22-7.84-1.83-.36.02-.71.05-1.07.08-4.44-.06-8.88-.12-13.32-.17-.29.05-.58.1-.87.15-.49-.03-.97-.07-1.46-.1-.96.17-1.91.37-2.87.51-5.76.89-11.18,2.62-15.83,6.3-.15.11-.3.23-.45.33-.02.08-.05.15-.08.22-.01.02-.02.04-.04.06-.01.02-.03.04-.05.06-.03.04-.07.07-.11.09-.04.02-.08.04-.12.04-.06.02-.13.03-.21.03,0,.03,0,.06,0,.09,0,.02,0,.04,0,.06,0,.13-.06.23-.13.3-.02.01-.03.03-.05.04-.04.03-.09.06-.15.08-.02,0-.05.02-.08.03-.03,0-.05.01-.09.02-.05,0-.1.02-.15.02-.05,0-.1.01-.15.02-.51.42-1.01.85-1.52,1.27-.69.37-1.24.88-1.53,1.62-.28.33-.57.67-.86,1-3.26,3.16-4.99,7.19-6.26,11.41-2.12,7.06-1.51,14.36-1.69,21.59-.05,2.16.43,2.87,2.73,2.84,9.29-.14,18.58-.05,27.88-.03,1.7,0,4.03-.57,4.93.3,1.05,1.02-.33,3.15-.58,4.81-.02.16-.06.32-.06.49.12,2.29-1.12,2.68-3.17,2.67-12.8-.09-25.6-.04-38.39-.05-2.28,0-4.52.21-6.55,1.42,0,0,0,0,0,0h0s-.01,0-.01,0l.02-.03c-1.89.57-3.41,1.7-4.76,3.09-.17.16-.34.33-.51.49-.6.34-1.02.84-1.31,1.46-.17.05-.24.17-.21.34-.16.21-.31.4-.46.61M201.97,181.46c-.13.03-.25.07-.36.13.11-.06.24-.1.36-.13ZM61.41,226.94c-5.76-.03-9.41-3.72-9.42-9.49,0-4.95,4.32-9.09,9.54-9.11,4.67-.02,9.07,4.4,9.07,9.11,0,5.52-3.88,9.53-9.19,9.5ZM77.48,209.03c-.54-.67-.54-1.36.06-1.96,1.4-1.38,3.12-2.33,4.91-3.06,1-.41,1.69.25,1.84,1.33.08.54-.17.95-.52,1.31-1.21,1.23-2.59,2.2-4.14,2.94-.85.41-1.57.16-2.15-.56ZM83.59,223.5c-.98-.06-1.96-.03-2.93-.02-1.31.01-2.06-.72-2.01-1.93.04-1.18,1.02-1.54,2.12-1.51.57,0,1.14,0,1.71,0h0c.41-.01.82,0,1.23-.01,1.25-.01,2.42.25,2.35,1.77-.06,1.43-1.16,1.79-2.46,1.71ZM89,200.17c1.22-1.78,3.14-2.75,5.12-3.54.63-.25,1.05.22,1.43.67.44.51.37,1.01.1,1.57-.5,1.04-4.5,3.6-5.87,3.55-1.35-.17-1.4-1.34-.77-2.25ZM96.51,223.43c-1.29.06-2.58.03-3.88.05-1.26.02-1.96-.49-2.02-1.84-.06-1.53.88-1.68,2.04-1.62.49.02.97,0,1.46,0v.05c.81,0,1.62-.03,2.42,0,.97.04,1.46.6,1.49,1.55.03,1.04-.43,1.74-1.52,1.79ZM106.48,223.42c-.65.05-1.3.04-1.95-.05-.97-.14-1.63-.57-1.59-1.75.04-1.16.64-1.58,1.69-1.58h2.2c1.06.33,3.34-.93,3.36,1.55.02,2.5-2.22,1.72-3.71,1.82ZM119.99,223.49c-.56,0-1.13,0-1.7,0v-.02c-.73,0-1.46.07-2.18-.01-1.07-.12-1.49-.83-1.43-1.87.05-.97.54-1.51,1.51-1.54,1.29-.04,2.58-.02,3.87-.05,1.23-.03,2.06.38,2.04,1.77-.02,1.41-.95,1.72-2.12,1.74ZM130.6,223.4c-1.39-.11-3.72.94-3.62-1.78.09-2.48,2.34-1.16,3.52-1.69,1.38.46,3.65-.75,3.64,1.71,0,2.22-2.08,1.88-3.54,1.76ZM149.02,229.39c-4.72-.06-8.36-3.8-8.26-8.46.09-4.43,4.11-8.19,8.72-8.16,4.4.03,7.83,3.82,7.81,8.63-.02,4.7-3.49,8.06-8.27,7.99ZM171.78,222.79c-1.87,1.13-3.94.76-5.87.54-1.88-.23-1.32-1.82-1.05-3.07,1.52-.4,3.06-.18,4.6-.22,1.88-.04,2.7.86,2.33,2.75ZM180.01,223.51c-1.22-.37-3.57.88-3.58-1.77,0-2.66,2.31-1.65,3.71-1.7,1.45-.05,3.78-.81,3.79,1.64.01,2.36-2.24,1.7-3.91,1.82ZM195.36,223.34c-1.35.03-2.71.1-4.06.09-2.77-.02-3.14-.62-2.16-3.35h0c2.07.03,4.14.07,6.22.11.65,1.05.67,2.11,0,3.16ZM205.89,223.48c-1.05,0-2.11-.02-3.16,0-1.28.03-2.08-.62-2.11-1.83-.03-1.22.96-1.56,2.02-1.6.65-.02,1.3,0,1.95,0v-.05c.4,0,.81.02,1.21,0,1.31-.08,2.37.33,2.33,1.78-.03,1.27-1.06,1.71-2.24,1.71ZM210.06,201.54c-.26.99-.97,1.82-2.22,1.25-1.53-.7-3-1.6-4.39-2.57-.71-.5-1.3-1.36-.61-2.31.66-.93,1.59-1.11,2.57-.5,1.3.81,2.59,1.66,3.85,2.54.45.31.93.71.79,1.59ZM218.45,223.42c-1.29.03-2.58.03-3.87.05-1.11.01-1.9-.35-1.94-1.62-.05-1.37.71-1.86,1.97-1.82.56.02,1.13,0,1.7,0v.05c.73,0,1.46-.05,2.17,0,.97.09,1.79.58,1.71,1.63-.07.92-.64,1.67-1.74,1.69ZM221.24,209.4c-.44.59-1.2.62-1.78.41-1.83-.68-3.47-1.71-4.85-3.12-.46-.46-.47-.98-.19-1.55.27-.58.69-.87,1.87-.79,1.5.71,3.46,1.65,4.99,3.23.44.45.39,1.27-.03,1.82ZM237.38,226.89c-5.42-.01-9.16-3.95-9.15-9.61.01-4.69,4.41-9,9.16-8.97,5.02.03,9.4,4.21,9.44,9.01.05,5.7-3.79,9.58-9.45,9.57Z" style="fill: #1b3d57; stroke-width: 0px;"/>
    <path d="M134.14,221.64c0,2.22-2.08,1.88-3.54,1.76-1.39-.11-3.72.94-3.62-1.78.09-2.48,2.34-1.16,3.52-1.69,1.38.46,3.65-.75,3.64,1.71Z" style="fill: #1b3d57; stroke-width: 0px;"/>
    <path d="M157.29,221.4c-.02,4.7-3.49,8.06-8.27,7.99-4.72-.06-8.36-3.8-8.26-8.46.09-4.43,4.11-8.19,8.72-8.16,4.4.03,7.83,3.82,7.81,8.63Z" style="fill: #1b3d57; stroke-width: 0px;"/>
    <path d="M171.78,222.79c-1.87,1.13-3.94.76-5.87.54-1.88-.23-1.32-1.82-1.05-3.07,1.52-.4,3.06-.18,4.6-.22,1.88-.04,2.7.86,2.33,2.75Z" style="fill: #1b3d57; stroke-width: 0px;"/>
    <path d="M195.36,220.18c.65,1.05.67,2.11,0,3.16-1.35.03-2.71.1-4.06.09-2.77-.02-3.14-.62-2.16-3.35h0c2.07.03,4.14.07,6.22.11Z" style="fill: #1b3d57; stroke-width: 0px;"/>
    <path d="M201.97,181.46c-.13.03-.25.07-.36.13.11-.06.24-.1.36-.13Z" style="fill: #1b3d57; stroke-width: 0px;"/>
    <path d="M246.83,217.32c.05,5.7-3.79,9.58-9.45,9.57-5.42-.01-9.16-3.95-9.15-9.61.01-4.69,4.41-9,9.16-8.97,5.02.03,9.4,4.21,9.44,9.01Z" style="fill: #1b3d57; stroke-width: 0px;"/>
    <path d="M259.21,199.95s-.01,0-.02,0v-.02s.01.02.02.03Z" style="fill: #1b3d57; stroke-width: 0px;"/>
    <path d="M73.85,142.99s0,.06,0,.09c0,.02,0,.04,0,.06,0,.13-.06.23-.13.3-.02.01-.03.03-.05.04-.04.03-.09.06-.15.08-.02,0-.05.02-.08.03-.03,0-.05.01-.09.02-.05,0-.1.02-.15.02-.05,0-.1.01-.15.02.26-.24.53-.49.8-.73,0,.01,0,.03,0,.04,0,0,0,.01,0,.02Z" style="fill: #1b3d57; stroke-width: 0px;"/>
    <path d="M74.47,142.49c-.02.08-.04.15-.08.22-.01.02-.02.04-.04.06-.01.02-.03.04-.05.06-.03.04-.07.07-.11.09-.04.02-.08.03-.12.04-.06.02-.13.03-.21.03h-.03s.01-.01.02-.02c.21-.16.42-.32.62-.49Z" style="fill: #1b3d57; stroke-width: 0px;"/>
    <path d="M134.8,166.99c-.16.29-.35.49-.7.25.23-.08.47-.16.7-.25Z" style="fill: #1b3d57; stroke-width: 0px;"/>
    <path d="M64.23,241.99h-.96c.32-.43.64-.44.96,0Z" style="fill: #1b3d57; stroke-width: 0px;"/>
    <path d="M214.05,88.89c.1.16.66,1.07.95,1.98h0c.51,1.32,1.02,2.63,1.53,3.95,1.39,6.18,1.14,12.47.82,18.7-.43,8.28-6.09,13.14-15,13.44-3.58.28-7.17.29-10.76,0-9.71-.28-15.13-5.76-15.22-15.41-.03-3.32.02-6.65.04-9.97-.27-5.8,1.85-10.64,5.9-14.7h0c3.27-2.4,6.78-4.26,10.84-4.91,5.01-.02,10.08-.37,14.67,2.31,2.35,1.17,4.31,2.85,6.25,4.59" style="fill: #1b3d57; stroke-width: 0px;"/>
    <path d="M214.05,88.89h-.03l.02-.02s0,0,.01.02Z" style="fill: #1b3d57; stroke-width: 0px;"/>
    <path d="M169.04,141.41c.03,9.78-3.64,14.45-13.3,15.66-5.61.71-11.39.98-16.96-.75-3.15-.98-6-2.52-7.64-5.61v-.02c-.19-.32-.37-.64-.55-.96h.03c-1.02-1.74-1.36-3.64-1.35-5.6,0-4.72-.06-9.43.08-14.14.17-5.74,2.74-10.24,7.47-13.5l.18-.03c.21-.15.43-.3.64-.46.17-.08.34-.16.51-.25.22-.4.58-.51,1-.53.22-.41.6-.43.99-.45.03-.14.12-.21.27-.2h.06c7.2-3.53,18.03-1.78,23.41,3.8l.1.1c.35.4.71.81,1.06,1.22l.14.05v.15c2.88,3.13,3.59,7.03,3.79,11.04.17,3.49.06,7,.07,10.5Z" style="fill: #1b3d57; stroke-width: 0px;"/>
    <path d="M121.64,105.45c-.06.98-.12,1.96-.18,2.94.07.13.1.27.09.42-.11,3.73.11,7.53-1.84,10.94-2.58,4.54-6.94,6.5-11.73,7.01-5.73.61-11.55.81-17.27-.48-7.13-1.6-9.8-6.65-10.28-13.36-.15-2.03-.06-4.07-.08-6.11h0s-.06-1.35-.06-1.35c-.04-.22-.09-.44-.12-.65-.63-3.89.41-7.61,1.28-11.35l.35-.72c.07-.14.14-.29.22-.44,1.17-1.62,2.33-3.24,3.5-4.86,6.14-5.23,13.28-6.35,20.99-5.02.84.15,1.8.1,2.35.99.15,0,.29.02.44.07,5.9,1.56,9.43,5.54,11.29,11.16.9,2.71.97,5.55,1.07,8.37,0,.82-.01,1.63-.02,2.45Z" style="fill: #1b3d57; stroke-width: 0px;"/>
    <g>
      <path d="M70.6,217.44c0,5.52-3.88,9.53-9.19,9.5-5.76-.03-9.41-3.72-9.42-9.49,0-4.95,4.32-9.09,9.54-9.11,4.67-.02,9.07,4.4,9.07,9.11Z" style="fill: #0bb99a; stroke-width: 0px;"/>
      <path d="M77.48,209.03c-.54-.67-.54-1.36.06-1.96,1.4-1.38,3.12-2.33,4.91-3.06,1-.41,1.69.25,1.84,1.33.08.54-.17.95-.52,1.31-1.21,1.23-2.59,2.2-4.14,2.94-.85.41-1.57.16-2.15-.56Z" style="fill: #0bb99a; stroke-width: 0px;"/>
      <path d="M86.05,221.79c-.06,1.43-1.16,1.79-2.46,1.71-.98-.06-1.96-.03-2.93-.02-1.31.01-2.06-.72-2.01-1.93.04-1.18,1.02-1.54,2.12-1.51.57,0,1.14,0,1.71,0h0c.41-.01.82,0,1.23-.01,1.25-.01,2.42.25,2.35,1.77Z" style="fill: #0bb99a; stroke-width: 0px;"/>
      <path d="M89.77,202.42c-1.35-.17-1.4-1.34-.77-2.25,1.22-1.78,3.14-2.75,5.12-3.54.63-.25,1.05.22,1.43.67.44.51.37,1.01.1,1.57-.5,1.04-4.5,3.6-5.87,3.55Z" style="fill: #0bb99a; stroke-width: 0px;"/>
      <path d="M98.03,221.64c.03,1.04-.43,1.74-1.52,1.79-1.29.06-2.58.03-3.88.05-1.26.02-1.96-.49-2.02-1.84-.06-1.53.88-1.68,2.04-1.62.49.02.97,0,1.46,0v.05c.81,0,1.62-.03,2.42,0,.97.04,1.46.6,1.49,1.55Z" style="fill: #0bb99a; stroke-width: 0px;"/>
      <path d="M110.19,221.6c.02,2.5-2.22,1.72-3.71,1.82-.65.05-1.3.04-1.95-.05-.97-.14-1.63-.57-1.59-1.75.04-1.16.64-1.58,1.69-1.58h2.2c1.06.33,3.34-.93,3.36,1.55Z" style="fill: #0bb99a; stroke-width: 0px;"/>
      <path d="M122.11,221.75c-.02,1.41-.95,1.72-2.12,1.74-.56,0-1.13,0-1.7,0v-.02c-.73,0-1.46.07-2.18-.01-1.07-.12-1.49-.83-1.43-1.87.05-.97.54-1.51,1.51-1.54,1.29-.04,2.58-.02,3.87-.05,1.23-.03,2.06.38,2.04,1.77Z" style="fill: #0bb99a; stroke-width: 0px;"/>
      <path d="M183.92,221.69c.01,2.36-2.24,1.7-3.91,1.82-1.22-.37-3.57.88-3.58-1.77,0-2.66,2.31-1.65,3.71-1.7,1.45-.05,3.78-.81,3.79,1.64Z" style="fill: #0bb99a; stroke-width: 0px;"/>
      <path d="M208.12,221.77c-.03,1.27-1.06,1.71-2.24,1.71-1.05,0-2.11-.02-3.16,0-1.28.03-2.08-.62-2.11-1.83-.03-1.22.96-1.56,2.02-1.6.65-.02,1.3,0,1.95,0v-.05c.4,0,.81.02,1.21,0,1.31-.08,2.37.33,2.33,1.78Z" style="fill: #0bb99a; stroke-width: 0px;"/>
      <path d="M210.06,201.54c-.26.99-.97,1.82-2.22,1.25-1.53-.7-3-1.6-4.39-2.57-.71-.5-1.3-1.36-.61-2.31.66-.93,1.59-1.11,2.57-.5,1.3.81,2.59,1.66,3.85,2.54.45.31.93.71.79,1.59Z" style="fill: #0bb99a; stroke-width: 0px;"/>
      <path d="M220.18,221.73c-.07.92-.64,1.67-1.74,1.69-1.29.03-2.58.03-3.87.05-1.11.01-1.9-.35-1.94-1.62-.05-1.37.71-1.86,1.97-1.82.56.02,1.13,0,1.7,0v.05c.73,0,1.46-.05,2.17,0,.97.09,1.79.58,1.71,1.63Z" style="fill: #0bb99a; stroke-width: 0px;"/>
      <path d="M221.27,207.57c.44.45.39,1.27-.03,1.82-.44.59-1.2.62-1.78.41-1.83-.68-3.47-1.71-4.85-3.12-.46-.46-.47-.98-.19-1.55.27-.58.69-.87,1.87-.79,1.5.71,3.46,1.65,4.99,3.23Z" style="fill: #0bb99a; stroke-width: 0px;"/>
      <path d="M290.27,58.07c-.94,6.36-2.5,12.6-3.78,18.89-.65,3.19-1.29,6.37-1.89,9.58-.36,1.9-1.02,2.11-2.4.7-1.87-1.93-3.91-3.69-5.79-5.62-.96-.99-1.61-.96-2.57.02-10.94,11.08-21.98,22.05-32.85,33.19-4.69,4.81-4.57,4.96-8.65-.22-4.89-6.21-9.74-12.44-14.63-18.65-.33-.43-.55-1.02-1.19-1.15-.51-1.31-1.02-2.63-1.53-3.94h0s0,0,0,0c-.29-.91-.85-1.82-.95-1.98,0-.01-.01-.02-.01-.02-1.93-1.74-3.9-3.42-6.25-4.59-1.54-3.76-4.56-6.45-6.96-9.58-.68-.88-1.13-.06-1.52.37-2.07,2.28-4.12,4.59-6.18,6.89-4.06.65-7.57,2.52-10.84,4.91h0c-4.05,4.06-6.17,8.9-5.9,14.7-2.67,1.79-4.33,4.52-6.4,6.87-2.04,2.32-1.99,2.35-4.29.24-4.31-3.97-8.63-7.92-12.95-11.89q-2.43-2.23-4.68.07c-11.48,11.77-22.95,23.55-34.44,35.31-1.07,1.1-2.19,2.13-3.3,3.2-.36.02-.71.05-1.07.08-4.44-.06-8.88-.12-13.32-.17.14-.75-.51-.95-.91-1.31-4.51-4.12-9.09-8.18-13.51-12.39-1.37-1.3-2.17-1.3-3.5.04-11.57,11.71-23.23,23.34-34.81,35.04-1.23,1.24-2.43,1.89-4.24,1.87-8.88-.09-17.77-.1-26.66,0-2.03.02-2.73-.59-2.58-2.63.2-2.59.12-5.21.16-7.82,8.24-.02,16.48-.1,24.72-.02,1.78.01,3.02-.49,4.27-1.75,12.69-12.79,25.45-25.53,38.2-38.27.89-.89,1.7-2.09,3.27-1.24.02,2.04-.06,4.08.08,6.11.48,6.71,3.15,11.76,10.28,13.36,5.72,1.29,11.54,1.09,17.27.48,4.79-.51,9.15-2.47,11.73-7.01,1.95-3.41,1.73-7.21,1.84-10.94.47.05.73-.29,1.01-.58,6.16-6.26,12.32-12.52,18.47-18.79.44-.46,1.02-.82,1.14-1.53l.02-.03c2.23-1.65,4.01-3.78,5.87-5.8,1.24-1.34,2.29-1.88,3.79-.57h.02c2.88,3.04,6.02,5.77,9.27,8.38l.46.46c.18.16.37.31.55.47h0c.16.17.32.33.49.49h0c.17.16.33.32.5.48h0c.16.16.32.32.49.49h0c.37.44.77.83,1.11,1.28,1.52,2.05,2.79,1.88,4.44-.07,4.28-5.09,8.72-10.06,13.15-15.03,5.12-5.76,10.3-11.47,15.46-17.2.87-1.1,1.74-2.21,2.61-3.31.3.02.61.04.91.07.17.17.34.33.51.5h0c1.9,2.55,3.76,5.12,5.71,7.61,5.08,6.46,9.97,13.08,15.37,19.29v.02c2.18,3.31,4.64,6.39,7.35,9.27l.02.03c1.81,2.49,3.65,4.95,5.41,7.47.93,1.33,1.74,1.34,2.85.18,3.04-3.16,6.15-6.27,9.25-9.38,6.2-6.22,12.42-12.42,18.62-18.65.66-.66,1.59-1.23.4-2.34-2.3-2.16-4.5-4.43-6.74-6.66.03-.32.07-.63.11-.95,9.95-2.13,19.9-4.27,29.85-6.4l.12.1.15-.02Z" style="fill: #0bb99a; stroke-width: 0px;"/>
      <path d="M246.83,217.32c.05,5.7-3.79,9.58-9.45,9.57-5.42-.01-9.16-3.95-9.15-9.61.01-4.69,4.41-9,9.16-8.97,5.02.03,9.4,4.21,9.44,9.01Z" style="fill: #0bb99a; stroke-width: 0px;"/>
      <path d="M157.29,221.4c-.02,4.7-3.49,8.06-8.27,7.99-4.72-.06-8.36-3.8-8.26-8.46.09-4.43,4.11-8.19,8.72-8.16,4.4.03,7.83,3.82,7.81,8.63Z" style="fill: #0bb99a; stroke-width: 0px;"/>
      <path d="M134.14,221.64c0,2.22-2.08,1.88-3.54,1.76-1.39-.11-3.72.94-3.62-1.78.09-2.48,2.34-1.16,3.52-1.69,1.38.46,3.65-.75,3.64,1.71Z" style="fill: #0bb99a; stroke-width: 0px;"/>
      <path d="M171.78,222.79c-1.87,1.13-3.94.76-5.87.54-1.88-.23-1.32-1.82-1.05-3.07,1.52-.4,3.06-.18,4.6-.22,1.88-.04,2.7.86,2.33,2.75Z" style="fill: #0bb99a; stroke-width: 0px;"/>
    </g>
    <path d="M195.36,223.34c-1.35.03-2.71.1-4.06.09-2.77-.02-3.14-.62-2.16-3.35h0c2.07.03,4.14.07,6.22.11.65,1.05.67,2.11,0,3.16Z" style="fill: #0bb99a; stroke-width: 0px;"/>
    <path d="M80.36,106.79c-.09-.63-.16-1.3-.18-2,.03.22.08.44.12.65l.06,1.34Z" style="fill: #1b3d57; stroke-width: 0px;"/>
  </g>
</svg>