<?xml version="1.0" encoding="UTF-8"?>
<svg id="Layer_1" data-name="Layer 1" xmlns="http://www.w3.org/2000/svg" viewBox="0 0 200 200">
  <defs>
    <style>
      .cls-1 {
        fill: #157d90;
      }

      .cls-1, .cls-2, .cls-3, .cls-4, .cls-5, .cls-6, .cls-7, .cls-8, .cls-9, .cls-10, .cls-11, .cls-12, .cls-13 {
        stroke-width: 0px;
      }

      .cls-2 {
        fill: #179e9e;
      }

      .cls-3 {
        fill: #258b98;
      }

      .cls-4 {
        fill: #155682;
      }

      .cls-5 {
        fill: #359494;
      }

      .cls-6 {
        fill: none;
      }

      .cls-7 {
        fill: #175882;
      }

      .cls-8 {
        fill: #1e969a;
      }

      .cls-9 {
        fill: #185983;
      }

      .cls-10 {
        fill: #13748d;
      }

      .cls-11 {
        fill: #176688;
      }

      .cls-12 {
        fill: #1d9d9d;
      }

      .cls-13 {
        fill: #188694;
      }
    </style>
  </defs>
  <rect class="cls-6" width="200" height="200"/>
  <g>
    <path class="cls-4" d="M75.39,154.37s.14-.01.14,0c.6,0,1.32.31,1.58-.6,0,0-.02.05-.02.05.57.13,1.18.37,1.39-.5,0,0,0,.04,0,.04,1.45.09,2.84.05,3.64-1.46,0,0,.04.02.04.02,1.02.31,1.88.25,2.28-.93,0,0,.03.02.03.02.9.36,1.59.2,1.96-.77,0,0-.03.02-.03.02.64.02,1.27.03,1.91.05.11,1.03-.21,2.08.52,3.08,1.62,2.22,4.35,2.63,7.45,1.01,3.77-1.97,7.57-3.87,11.31-5.9,3.27-1.78,6.46-3.69,9.37-6.03,3.14-1.72,5.98-3.88,8.82-6.03,2.34-1.78,4.95-3.22,6.89-5.51,5.82-4.36,11.15-9.27,16.38-14.3.4-.38.71-.8.72-1.38.97-.04,1.47-.78,2.03-1.39,3.01-3.27,5.97-6.58,8.98-9.84,4.99-5.41,9.54-11.19,13.92-17.07,6.13-8.22,11.95-16.67,17.58-25.24,1.13,1.55-.2,3.48.8,5.05-.02.47-.04.94-.06,1.4-.95.25-.73,1.02-.76,1.68-.31,7.22-.64,14.43-.91,21.65-.04,1.12-.27,1.96-1.51,2.17,0,0,.03.02.03.02-.09-.46-.43-.57-.83-.6,0,0-.02-.01-.02-.01-.06-.67-.4-.94-1.06-.77,0,0,.03.02.03.02-.05-.52-.42-.6-.85-.6,0,0,0,0,0,0-.05-.7-.35-1.01-1.07-.7,0,0-.03-.03-.03-.03.04-.61-.36-.64-.8-.62,0,0,.01.01.01.01.05-1.01-.64-1-1.34-.99,0,0,0,0,0,0-.06-.48-.17-.94-.81-.83-.49.08-.49.5-.52.88,0,0,.02-.02.02-.02-.71.02-1.03.33-.77,1.05,0,0,0,0,0,0-.57-.02-.63.37-.63.8,0,0,.01-.02.01-.02-.14.18-.29.37-.43.55,0,0,.04-.04.04-.04-.3.07-.45.25-.39.57l-.05-.17s.07.16.07.16c-.58-.02-.64.37-.64.8,0,0,.01-.02.01-.02-.71.02-1.01.34-.79,1.05l-.13-.08s.14.06.14.06c-.55.01-.62.39-.63.82,0,0,0,0,0,0-1.25.02-1.47.83-1.39,1.85,0,0,0,0,0,0-1.4.15-1.94.98-1.85,2.32,0,0,0,0,0,0-1.4.13-1.93.97-1.87,2.29,0,0,0,0,0,0-.15.17-.29.34-.44.51,0,0,.02-.01.02-.01-.99.04-1.54.42-1.23,1.51,0,0,0,0,0,0-.56-.03-.63.36-.66.78-.13.16-.27.31-.4.47-.98.05-1.55.43-1.26,1.52l-.18-.02s.18,0,.18,0c-.54-.02-.63.35-.65.77-.28.32-.57.64-.85.96-1.32.28-2.34.84-2.14,2.45,0,0-.06.04-.06.04-.34-.04-.48.1-.39.44,0,0-.03.05-.04.05-.59-.12-.64.28-.68.7-.14.15-.29.31-.43.46-.16.17-.32.33-.48.5-.13.15-.27.29-.4.44-.17.17-.34.34-.51.51,0,0,.03-.02.03-.02-1.84.65-3.24,1.72-3.59,3.79,0,0,0-.01,0-.01-.32,0-.48.16-.48.48l-.09-.09s.11.07.11.07c-.32,0-.48.16-.48.48l-.09-.09s.11.07.11.07c-.32,0-.48.16-.48.48l-.09-.09s.11.07.11.07c-.32,0-.48.16-.48.48,0,0,0,0,0,0-2.9,1.07-4.68,3.31-6.11,5.89,0,0,.02-.03.02-.03-.17.16-.34.32-.51.49-.31.29-.61.58-.92.88-.41.04-.83.07-.67.67,0,0-.09.06-.09.06-.35-.11-.47.03-.39.37,0,0-.06.06-.06.06-.35-.08-.49.06-.43.4,0,0-.04.03-.04.03-.34-.06-.49.09-.47.42l-.13-.04s.12.07.11.07c-1.36-.23-1.86.52-1.95,1.72,0,0,.02-.03.02-.03-.17.16-.34.31-.52.47,0,0,.02-.02.02-.02-.17.15-.33.3-.5.45,0,0,0,0,0,0-.42.02-.8.08-.75.65,0,0,0-.01,0-.01-.33-.05-.49.1-.52.42l-.06-.14s.08.13.08.12c-.73-.16-1.03.18-1.03.87-.15.13-.29.26-.44.39-.17.14-.34.29-.51.43,0,0-.01,0-.01,0-.41.03-.78.11-.76.65l-.08-.08s.09.08.09.08c-1.08-.28-1.47.26-1.51,1.24,0,0,.01-.01.01-.01-.43,0-.83.05-.74.65,0,0-.04.01-.04.01-.33-.08-.49.06-.52.39l-.07-.17s.08.17.08.17c-.71-.18-1.03.12-1.02.84,0,0,.01-.01.01-.01-.43,0-.84.02-.75.63,0,0-.05.02-.05.02-.33-.09-.49.06-.51.38l-.07-.18s.08.18.08.17c-.7-.18-1.03.11-1.04.81,0,0,.01,0,.01,0-.43,0-.81.06-.78.63l-.14-.09s.13.1.13.1c-.73-.26-1.04.05-1.04.77,0,0,.02-.03.02-.03-.17.14-.35.28-.52.43,0,0,0,0,0,0-.42.01-.78.1-.82.61,0,0,.03-.02.03-.02-.68-.16-1.01.12-1.04.8,0,0,0,0,0,0-.42,0-.79.08-.82.62l-.07-.12s.09.11.09.11c-.68-.2-1.01.08-1.07.76,0,0,0,0,0,0-.69-.01-1.36,0-1.35.96,0,0,.01-.01.01-.01-.71-.04-1.41-.07-1.37.96,0,0,.01-.01.01-.01-.44-.02-.83.02-.79.62,0,0-.03.03-.03.03-.73-.3-1.03.02-1.06.73,0,0,.01-.01.01-.01-.43-.01-.81.06-.86.59,0,0,.03-.04.03-.04-.19.13-.38.26-.58.4,0,0,.02-.02.02-.02-.71-.06-1.4-.09-1.42.91,0,0,0,0,0,0-.8.01-1.71-.15-1.66,1.12,0,0-.06.04-.06.04-.85-.33-1.34-.09-1.36.87,0,0-.03.02-.03.02-.84-.3-1.32-.03-1.41.87,0,0,.02-.03.02-.03-.2.12-.39.25-.59.37,0,0,.02-.01.02-.01-.82-.03-1.68-.11-1.73,1.09l-.12-.03s.12,0,.12,0c-.3-.05-.49.07-.6.35,0,0,.02-.02.02-.02-.83-.05-1.66-.1-1.76,1.07,0,0,0,0,0,0-.47-.12-.88-.15-.83.53,0,0-.07.03-.07.03-.85-.4-1.29-.05-1.45.8,0,0,.04-.05.04-.05-.2.12-.4.24-.6.36,0,0,0,0,0,0-.4,0-.74.1-.91.5,0,0,.02-.01.02-.01-.83-.06-1.6-.01-1.82,1.01,0,0,.03-.03.03-.03-.86-.13-1.65-.13-1.84.99,0,0,.02-.03.02-.03-.46-.1-.85-.07-.92.51l-.12-.08s.13.07.13.07c-.46-.13-.85-.11-.92.5l-.14-.03s.14.01.14,0c-.46-.14-.85-.14-.92.48,0,0,0-.01,0-.01-.47-.15-.85-.14-.91.48,0,0,0-.01,0-.01-.75-.24-1.41-.3-1.51.76,0,0,0,0,0,0-.9.03-1.99-.33-2.23,1.08,0,0,.01-.03.01-.03-1.61-.18-2.86.44-3.81,1.72,0,0,.02,0,.02,0-.53,0-1.13-.14-1.34.6,0,0,.03-.03.03-.03-.98-.17-1.86-.09-2.32.97,0,0,.02-.03.02-.04-.89-.33-1.67.14-2.45.4-3.85,1.31-7.64,2.79-11.52,3.98-6.53,2-13.22,3.38-20.03,3.72-9.08.46-18.12.08-26.61-3.84-.52-.24-1.03-.26-1.56-.05,0,0-.02.01-.02.01-.13-1.25-.93-1.2-1.83-.93l-.02-.14s0,.14,0,.14c-.29-1.28-1.14-1.58-2.31-1.31,0,0-.08-.05-.08-.05.06-1.02-.46-1.2-1.31-.89,0,0-.05-.04-.05-.04.07-.61-.33-.64-.77-.63,0,0,.03.02.03.02-.19-.15-.37-.29-.56-.44,0,0,.04.04.04.04-.06-.47-.4-.59-.8-.62,0,0-.03-.02-.03-.02-.04-.62-.38-.89-.99-.85,0,0,.02.02.02.02-.61-1.86-1.87-3.07-3.7-3.72,0,0,.01.01.01.01-.02-.43-.07-.82-.66-.75l.13-.02s-.13,0-.13,0c.07-.33-.07-.5-.39-.53l.13-.08s-.12.09-.12.09c.15-.8-.05-1.34-.98-1.34.04-.03.08-.06.12-.09-.04.03-.09.06-.13.08.2-1.03-.02-1.81-1.22-1.98,0,0,.01.01.01.01-.19-1.98-.98-3.66-2.47-5,0,0,.03,0,.03,0,.37-1.14-.32-2.08-.6-3.09-1.36-4.96-2.33-10-1.93-15.15.37-4.78,1.17-9.52,2.22-14.21,1.34-3.69,2.23-7.53,3.93-11.09.25-.52.25-1.02-.07-1.51,0,0,.04-.13.04-.13,1.6-.94,2.06-2.44,2.03-4.18,0,0,.06-.16.06-.16.39-.21.48-.56.46-.96,0,0,0,.01,0,.01.1-.2.2-.41.3-.61,0,0-.03.02-.03.02.83-.08.63-.73.68-1.24,0,0,0,0,0,0,.12-.2.23-.4.35-.59,0,0-.03,0-.03,0,.97.13,1.06.94,1.27,1.66,0,0,.03.01.03.01-1.38.54-1.2,1.64-.98,2.75,0,0,.04,0,.04,0-.43.03-.7.3-.82.68-1.11,3.52-2.28,7.02-2.15,10.79,0,.15-.03.29-.08.42-1.49,3.76-.75,7.69-.8,11.54-.02,1.36.09,2.87.91,4.13,0,0-.02-.02-.02-.02.08.79-.36,1.69.47,2.33,0,0-.01-.02-.01-.02-.06,1.2.05,2.34,1,3.23,0,0-.03-.04-.03-.04-.05.55-.19,1.14.51,1.42,0,0-.04-.05-.04-.05-.08.94-.32,1.94.93,2.36,0,0-.03-.03-.03-.03-.07,1.21.19,2.24,1.4,2.81,0,0-.03-.03-.03-.03,0,.44.05.84.64.81,0,0-.03,0-.03,0-.06.31.07.5.35.6,0,0-.02-.03-.02-.03-.03.44.03.82.58.88,0,0-.05-.04-.05-.04.14.19.28.38.41.57,0,0-.03-.04-.03-.04.14.18.28.36.42.53,0,0,0,0,0,0,.02.41.11.77.62.81,0,0-.05-.04-.05-.04.01.3.17.48.46.54,0,0-.05-.05-.05-.05.16.18.33.36.49.54.13.15.26.29.39.44-.01.63.29.96.92.97.62.58,1.25,1.16,1.87,1.74.2,1.74,1.31,2.29,2.9,2.2l-.18.13s.19-.12.19-.12c.03,1.2.89,1.11,1.7,1.11,0,0-.02,0-.02,0,.2.12.4.24.6.35,0,0-.03-.04-.03-.04,1.17,1.93,3.04,2.3,5.09,2.29,0,0,.01-.03.01-.03.03.62.54.65.96.81,3.61,1.34,7.39,1.98,11.19,2.15,7.06.33,14.04-.42,20.84-2.36,2.23-.64,4.74-.57,6.61-2.29Z"/>
    <path class="cls-9" d="M104.36,107.3c-6.53-5.59-15.21-2.03-17.4,6.12-1.67,6.23-3.12,12.52-4.62,18.79-1.16,4.85-2.27,9.72-3.34,14.59-.29,1.3-.78,2.17-2.21,2.53-3.72.93-7.42,1.96-11.12,3-1.16.33-1.76.35-1.38-1.16,3.48-14.09,6.61-28.27,10.48-42.25,3.74-13.54,18.37-20.87,31.27-16.35,1.53.53,2.04,1.13,1.54,2.79-1.17,3.89-2.13,7.84-3.23,11.93Z"/>
    <path class="cls-7" d="M32.04,141.78c1.13.32.81-.63.92-1.1,1.39-5.67,2.56-11.39,4.16-17,2.55-8.96,7.77-15.66,17.1-18.33,5.06-1.45,10.16-1.39,15.18.5,1.19.45,1.48.86,1.09,2.15-1.16,3.89-2.13,7.85-3.19,11.85-.14-.01-.42.06-.55-.05-5.12-4.5-13.32-2.02-16.04,4.86-2.15,5.44-2.97,11.27-4.45,16.91-.93,3.56-1.78,7.15-2.61,10.74-.2.86-.41,1.4-1.49,1.14-5.59-1.38-10.86-3.35-14.88-7.73,3.76.39,4.19.11,4.68-3.05.05-.3.06-.6.09-.89Z"/>
    <path class="cls-12" d="M165.9,66.33s-.17,0-.17,0c-.76-.04-1.55-.18-2.25.26-1.81,1.15-2.34.08-2.83-1.46-.28-.88-.02-2.1-1.23-2.55l-.09-.09s.05-.11.05-.12c.03-.47.03-.92-.49-1.16,0,0,.03.05.03.05.04-.42-.01-.79-.46-.98,0,0,.02.03.02.03.02-.4-.04-.77-.47-.96,0,0,.02.03.02.03,0-.4-.07-.76-.49-.95,0,0,.02.03.02.03.01-.41-.06-.78-.52-.94,0,0,.03.05.03.04.07-.73.1-1.43-.94-1.41,0,0,.03.02.03.02.02-.44-.04-.83-.6-.87,0,0,.02.05.02.05.21-.74-.1-1.05-.83-1.04,0,0,.04.03.04.03-.16-.17-.31-.35-.47-.52,0,0,.02.02.02.02,0-.43-.07-.82-.63-.83,0,0,.06.04.06.04,0-.33-.17-.5-.48-.53,0,0,.06.05.06.05-.03-.31-.2-.48-.51-.51,0,0,.05.05.05.05-.03-.31-.2-.48-.52-.51,0,0,.05.05.06.05-.03-.31-.21-.48-.52-.5,0,0,.06.06.06.06-.04-.51-.41-.6-.82-.63,0,0,0,0,0,0-.17-.15-.33-.29-.5-.44,0,0,.02.02.02.02-.18-.15-.35-.31-.53-.46,0,0,.02.04.02.04,0-1.32-.8-1.54-1.89-1.38,0,0,.01.03.01.03.01-1.74-1.21-1.49-2.31-1.42,0,0,.02.03.02.03-.05-1.41-1.09-.93-1.86-.96,0,0,.05.03.05.03-.17-.48-.55-.54-.98-.48,0,0,.05.04.05.03-.17-.5-.55-.55-1-.46,0,0,.06.04.06.04-.25-.73-.85-.58-1.39-.56,0,0,.05.03.05.03-.26-.51-.72-.5-1.19-.47,0,0-.16,0-.16,0-.68-1.44-1.96-.88-3.06-.93,0,0-.17.02-.17.02-.41-.64-1.06-.84-1.75-.98-11.47-2.27-22.63-.67-33.64,2.75-.56.17-.95.47-1.16,1.01,0,0-.15-.03-.15-.03-.9.16-2.14-.69-2.6.84-.12.04-.25.06-.38.05-.38,0-.77.03-1.14-.04-.74-.12-1.83.45-2.09-.76-.23-1.13.89-1.22,1.54-1.66.85-.57,2.08-.63,2.5-1.8,0,0-.04.03-.04.03.42.04.79-.02.98-.47,0,0-.03.02-.03.02.78.07,1.49-.08,2.24-.36,6.87-2.52,13.68-5.19,21.02-6.23,9.53-1.35,18.92-1.33,28.19,1.52.88.27,1.74.62,2.7.44,0,0-.04-.03-.04-.03.32.97,1.06,1.07,1.92.91,0,0-.04-.04-.04-.04.51,1.3,1.58,1.52,2.8,1.44,0,0-.05-.03-.05-.03.14.48.52.55.94.53,0,0-.02-.02-.02-.02,0,1.02.7,1,1.42.94,0,0-.02-.02-.02-.02,0,.72.31,1.04,1.05.79,0,0-.04,0-.04,0,.01.58.41.63.86.61,0,0-.04-.02-.04-.02.18.16.36.31.54.47,0,0-.05-.05-.05-.05.18.16.36.33.54.49,0,0-.05-.05-.05-.05.04.31.21.48.53.5,0,0-.05-.05-.05-.05.03.32.2.49.52.49,0,0-.05-.04-.05-.04.02.33.19.49.52.49,0,0-.04-.04-.04-.04,0,.33.17.5.51.5,0,0-.04-.04-.04-.04,0,.33.17.5.5.5,0,0-.04-.04-.04-.04,0,.33.17.5.5.5,0,0,0-.04,0-.04-.24,1.09.29,1.5,1.3,1.49,0,0-.05-.03-.05-.02.15.18.3.36.45.54,0,0-.01-.02-.01-.02-.02.7-.03,1.38.95,1.39,0,0-.02-.02-.02-.02-.04.69-.05,1.37.91,1.42,0,0,0,0,0,0,0,.4.1.75.52.92,0,0-.03-.04-.03-.04-.02.42.05.8.52.95,0,0-.03-.05-.03-.05-.09,1.21.2,2.24,1.39,2.83,0,0-.03-.03-.03-.03-.25,1.19.1,2.41.58,3.34,1.18,2.25.93,4.01-1.06,5.55,0,0,.03-.03.03-.03-.93-.04-1.91-.24-2.34.95,0,0,.03-.03.03-.03-.94-.05-1.91-.19-2.38.94Z"/>
    <path class="cls-8" d="M142.66,27.86c.72-.02,1.41.08,2.01.52.25.5.68.51,1.14.43.55.19,1.09.39,1.64.58.28.47.76.44,1.2.48.21.11.42.21.63.32.23.64.79.55,1.3.58.49.27.97.54,1.46.81.12.46.25.91.37,1.37-.24-.1-.47-.21-.71-.31-.15-.05-.29-.07-.44-.08-.41-.13-.81-.27-1.22-.4,0,0-.22-.05-.22-.05,0,0-.06-.01-.06-.01-.26-.11-.52-.21-.77-.32-.74,0-1.47-.06-2.11-.49-.45-.42-.97-.62-1.58-.42-.36-.04-.71-.08-1.07-.12-.13-.03-.26-.04-.39-.04-.78-.13-1.57-.27-2.35-.4-.29-.02-.58-.05-.86-.07h-.1c-.48-.54-1.08-.4-1.67-.33-.99-.03-1.99-.06-2.98-.09-1.85,0-3.71.01-5.56.02-1.08.09-2.15.19-3.23.28-1.11-.37-2.21-.74-3.2.27-.74.38-1.54.38-2.35.34-.08,0-.15,0-.23.02-.53.11-1.06.21-1.59.32-.5-.59-.85-.08-1.23.17-8.72,1.98-17.13,4.84-25.15,8.82-9.9,4.92-18.97,11.08-27.37,18.25-.64.55-1.33,1.03-1.99,1.55-.19.17-.38.33-.57.5,0,0,.05-.04.05-.04-.17.16-.34.33-.51.49,0,0,.04-.02.04-.02-.66.12-1.32.24-1.98.36-4.6.81-4.58.8-6.09-2.23-.47-.95-.15-1.94-.39-2.89,0,0-.02.05-.02.05.17-.17.35-.34.52-.51,0,0-.05.05-.05.05.18-.16.35-.32.53-.49,0,0-.04.04-.04.04.17-.16.34-.31.52-.46,0,0-.01.01-.01.01.42-.01.8-.09.85-.62,0,0-.05.07-.05.07.31-.02.49-.19.54-.5,0,0-.04.08-.04.08.18-.19.36-.38.54-.57,7.96-7.11,16.94-12.7,26.47-17.41,12.05-5.95,24.73-9.7,38.21-10.34,6.47-.3,12.9.14,19.16,2.05,0,0,.18.04.18.04h.08c.26.12.52.22.78.33Z"/>
    <path class="cls-3" d="M192.26,61.68c-5.63,8.57-11.45,17.03-17.58,25.24-4.39,5.88-8.93,11.66-13.92,17.07-3.01,3.26-5.97,6.58-8.98,9.84-.56.61-1.06,1.35-2.03,1.39-1.09-.31-2.18-.85-3.28-.87-1.76-.03-2.27-.9-2.27-2.43,0-.61-.02-1.22-.03-1.83,0,0-.01.02-.01.02.16-.16.33-.32.49-.49,0,0-.02.02-.02.02.16-.16.32-.32.49-.49,0,0-.02.02-.02.02.16-.16.32-.33.49-.49,0,0-.03.03-.03.03.16-.17.33-.33.49-.5,0,0-.03.03-.03.03.16-.17.33-.34.49-.51,0,0-.04.04-.04.04.17-.17.33-.34.5-.51,0,0-.04.05-.04.05.17-.17.33-.35.5-.52,0,0-.05.05-.05.05.17-.18.33-.35.5-.53,0,0-.06.05-.06.05.17-.18.34-.36.5-.53,0,0-.08.01-.07.01q2.94.2,2.88-3.16s-.01.02-.01.02c.16-.16.32-.33.48-.49,0,0-.03.03-.03.03.16-.17.32-.33.49-.5,0,0-.04.04-.04.04.16-.17.33-.34.49-.51,0,0-.05.05-.04.05.17-.17.33-.35.5-.52,0,0-.05.06-.05.06.17-.22.33-.44.5-.66,5.05-6.16,10.05-12.36,14.74-18.81,1.38-1.9,1.04-2.7-.78-3.76-2.16-1.26-4.16-2.78-6.17-4.14.24-.92.89-.92,1.33-1.09,8.69-3.44,17.39-6.85,26.1-10.24.62-.24,1.22-.69,1.97-.53.56.01,1.11.02,1.67.04Z"/>
    <path class="cls-9" d="M109.13,75.14c-.02,6.85-5.48,12.19-12.4,12.1-6.57-.08-12-5.55-12.03-12.1-.03-6.73,5.53-12.2,12.38-12.18,6.8.02,12.07,5.35,12.05,12.18Z"/>
    <path class="cls-10" d="M32.04,141.78c-.03.3-.04.6-.09.89-.49,3.16-.92,3.44-4.68,3.05,0,0,.04.01.04.01-.18-.17-.35-.34-.53-.51-.13-.14-.26-.28-.39-.42-.16-.17-.32-.34-.48-.51-4.15-4.19-6.15-9.41-7.08-15.09-1.5-9.1-.32-17.93,2.86-26.53-.69,2.81.65,4.31,3.2,5.12.39.12.71.55,1.01.87,1.62,1.74,3.27,1.36,4-.9.4-1.25.31-2.77,1.78-3.49-1.28,4.33-2.75,8.62-3.4,13.12-1.23,8.52-.11,16.66,3.77,24.38Z"/>
    <path class="cls-7" d="M70.4,89.59c.01,5.86-4.49,10.44-10.3,10.46-5.76.02-10.44-4.56-10.53-10.31-.08-5.61,4.73-10.49,10.37-10.51,5.74-.02,10.45,4.64,10.46,10.36Z"/>
    <path class="cls-12" d="M144.85,61.85c0,5.63-4.86,10.44-10.46,10.37-5.74-.08-10.4-4.79-10.38-10.48.02-5.69,4.76-10.35,10.51-10.33,5.73.01,10.34,4.68,10.34,10.44Z"/>
    <path class="cls-1" d="M31.67,104.28c-1.47.72-1.37,2.23-1.78,3.49-.73,2.26-2.37,2.64-4,.9-.31-.33-.62-.75-1.01-.87-2.55-.81-3.89-2.31-3.2-5.12,0,0,0,.04,0,.04.68-.29.54-.87.51-1.42,0,0-.03.04-.03.04.65-.29.52-.87.51-1.4,0,0-.02.03-.02.03,2.51-2.59,4.35-5.48,4.16-9.28,0,0-.03.04-.03.04.45-.17.51-.54.51-.94,0,0-.02.03-.02.03.4-.18.49-.53.5-.92,0,0,0,0,0,0,.12-.2.25-.39.37-.59,0,0-.06.06-.06.06.54-.11.6-.5.54-.95,0,0-.04.05-.04.05.49-.13.56-.51.54-.93,0,0-.03.04-.03.04.42-.16.51-.51.52-.91,0,0,0,0,0,0,.14-.23.28-.46.42-.68,1.54-3.07,3.52-5.85,5.66-8.53,2.17,2.78,4.95,4.59,8.44,5.27-2.33,3.63-4.67,7.26-7,10.89-.47.15-.55.52-.55.94,0,0,.02-.03.02-.03-.41.19-.49.54-.49.95,0,0,.01-.02.01-.02-.41.19-.48.55-.48.95,0,0,.01-.02.01-.02-.41.19-.48.55-.47.95,0,0,.01-.02.01-.02-.41.19-.49.55-.48.95,0,0,.01-.02.01-.02-.11.2-.22.4-.33.6,0,0,.05-.02.04-.02-.86.13-.62.78-.63,1.31,0,0,.03-.04.03-.04-.47.18-.52.56-.46.99,0,0,.03-.03.03-.03-1.7.55-1.58,1.9-1.42,3.27,0,0,.04-.05.04-.05-.52.18-.57.55-.43,1l.03.03Z"/>
    <path class="cls-13" d="M44.15,81.73c-3.49-.68-6.27-2.49-8.44-5.27,5.37-7.63,11.63-14.44,18.79-20.43.24.94-.08,1.94.39,2.89,1.51,3.03,1.49,3.05,6.09,2.23.66-.12,1.32-.24,1.98-.36-6.46,6.15-12.29,12.86-17.95,19.74-.17.22-.34.43-.51.65,0,0,.06-.04.06-.04-.31.05-.47.22-.42.55v.04Z"/>
    <path class="cls-11" d="M116.95,142.45c-2.91,2.34-6.1,4.26-9.37,6.03-3.73,2.03-7.54,3.93-11.31,5.9-3.09,1.62-5.82,1.21-7.45-1.01-.73-1-.42-2.05-.52-3.08.57-.87,1.98-.74,2.28-1.92,0,0-.04.03-.04.03.54-.01,1.19.22,1.31-.64,0,0,0,.03,0,.03.48.17.86.14.96-.47,0,0-.05.07-.05.07.21-.11.41-.22.62-.34h0c.51-.05,1.15.14,1.28-.66,0,0-.05.07-.05.07.2-.12.41-.24.61-.36,0,0-.02,0-.02,0,.39,0,.76-.08.94-.49,0,0-.03.02-.03.02.4,0,.77-.05.95-.49,0,0-.03.02-.03.02.41.01.79-.05.95-.5,0,0-.04.03-.04.03.42.02.8-.03.95-.52,0,0-.05.03-.05.03,1.21.05,2.32-.1,2.76-1.49,0,0-.04.04-.04.04.47.09.87.06.93-.54,0,0-.04.07-.04.07.2-.13.41-.25.61-.38,0,0-.03.02-.03.02.42,0,.8-.06.94-.54,0,0-.05.04-.05.04.45.04.84-.02.92-.57,0,0-.06.08-.06.08.2-.13.4-.26.6-.4,0,0-.03.02-.03.02.42,0,.79-.07.92-.56,0,0-.05.04-.05.04.46.04.86,0,.9-.59,0,0-.04.07-.04.07.2-.13.4-.25.6-.38,0,0-.03.02-.03.02.43,0,.81-.06.92-.57,0,0-.05.04-.05.04.47.06.87.03.86-.6,0,0,0,.08,0,.08.33.02.51-.15.6-.46.8-.77,1.7-1.37,2.73-1.77.09.6.34,1.23.25,1.81-.52,3.18.87,4.67,4,4.74Z"/>
    <path class="cls-1" d="M144.17,110.09c.01.61.03,1.22.03,1.83,0,1.52.51,2.39,2.27,2.43,1.1.02,2.19.56,3.28.87,0,.58-.32,1-.72,1.38-5.23,5.03-10.56,9.95-16.38,14.3-3.05-.3-5.68-1.46-7.64-3.89,0,0,.07.03.08.03.33.03.5-.13.54-.45,0,0-.04.04-.03.04.2-.12.4-.24.6-.36,5.99-5.4,11.99-10.8,17.98-16.19Z"/>
    <path class="cls-10" d="M125.01,127.02c1.97,2.43,4.59,3.59,7.64,3.89-1.94,2.29-4.55,3.73-6.89,5.51-2.84,2.16-5.67,4.32-8.82,6.03-3.13-.06-4.52-1.56-4-4.74.09-.57-.16-1.2-.25-1.81,0,0,0,0,0,0,.22-.08.81.36.56-.39,3.91-2.83,7.83-5.67,11.74-8.5Z"/>
    <path class="cls-5" d="M113.81,129.62c-3.75,2.92-7.78,5.39-12.26,8,1.33-5.57,2.53-10.7,3.79-15.82,2.13-8.63,4.27-17.25,6.47-25.86.51-2,1.12-3.98,2.31-5.72,0,0,.13.12.13.12-.95,3.44-1.96,6.86-2.83,10.31-1.06,4.18-1.79,8.46-3.04,12.58-1.72,5.69-2.76,11.55-4.3,17.28-.27,1.02-1.35,2.47.12,3.35,1.34.81,2.47-.38,3.55-1.01,1.33-.76,2.57-1.66,3.83-2.53.64-.44,1.24-.91,2.07-.87l.14.16Z"/>
    <path class="cls-3" d="M97.52,42.66c-.42,1.18-1.65,1.23-2.5,1.8-.65.44-1.77.54-1.54,1.66.25,1.21,1.34.64,2.09.76.37.06.76.03,1.14.04-1.39,1.32-3.31,1.49-4.95,2.27-3.37,1.6-6.78,3.14-10.17,4.71-.47-.05-.91-.04-1.01.57,0,0,.03-.04.03-.04-.2.12-.4.24-.59.36,0,0,.02-.01.02-.01-.63-.01-1.26-.02-1.89-.03.15-.34.31-.67.46-1.01,5.53-4.25,11.48-7.82,17.82-10.75.34-.16.73-.22,1.09-.32Z"/>
    <path class="cls-9" d="M27.65,169.88c.53-.21,1.04-.19,1.56.05,8.48,3.92,17.52,4.3,26.61,3.84,6.81-.35,13.5-1.72,20.03-3.72,3.88-1.19,7.67-2.67,11.52-3.98.78-.26,1.56-.74,2.45-.4-10.74,4.76-21.95,7.74-33.67,8.72-8.91.75-17.62-.08-26.02-3.32-.85-.33-1.65-.79-2.47-1.18Z"/>
    <path class="cls-3" d="M152.58,37.62c-.95.19-1.82-.17-2.7-.44-9.27-2.85-18.67-2.87-28.19-1.52-7.34,1.04-14.15,3.72-21.02,6.23-.75.27-1.46.42-2.24.36,8.38-4.26,17.31-6.66,26.6-7.82,8.65-1.08,17.2-.76,25.5,2.25.71.26,1.5.36,2.06.94Z"/>
    <path class="cls-5" d="M153.08,93.61c-3.31,4.3-7.07,8.19-11.27,12.48,1.29-5.83,3.82-11.37-1.83-15.75,0,0,.12-.13.12-.13,2.67.76,4.94,5.16,4.38,8.61-.11.69-.48,1.4.31,1.81.83.43,1.2-.42,1.67-.85.84-.77,1.65-1.59,2.43-2.43,1.28-1.36,2.06-3.24,4.03-3.9l.16.15Z"/>
    <path class="cls-7" d="M75.39,154.37c-1.86,1.73-4.37,1.66-6.61,2.29-6.8,1.94-13.79,2.69-20.84,2.36-3.8-.18-7.58-.82-11.19-2.15-.42-.16-.93-.19-.96-.81,12.35,3.8,24.55,2.32,36.71-.97.96-.26,1.93-.48,2.89-.72Z"/>
    <path class="cls-3" d="M99.83,46.06c.21-.54.6-.84,1.16-1.01,11.01-3.42,22.16-5.02,33.64-2.75.69.14,1.34.34,1.75.98-12.45-2.53-24.57-.8-36.54,2.78Z"/>
    <path class="cls-9" d="M9.3,118.44c-1.05,4.69-1.85,9.43-2.22,14.21-.4,5.14.57,10.19,1.93,15.15.28,1.01.97,1.95.6,3.09-3.25-6.91-3.5-14.24-2.87-21.64.31-3.66.89-7.31,2.1-10.81.15,0,.31,0,.46,0Z"/>
    <path class="cls-9" d="M189.83,93.63c1.24-.21,1.47-1.05,1.51-2.17.27-7.22.6-14.43.91-21.65.03-.66-.19-1.43.76-1.68-.41,8.86-.83,17.73-1.24,26.63-1.03.09-1.42-.62-1.94-1.12Z"/>
    <path class="cls-5" d="M121.65,109.27c-.84,5.8-2.57,11.41-3.92,17.09-.4,1.7-2.41,2.4-3.92,3.26,0,0-.14-.16-.14-.16.58-1.83,2.84-2.17,3.42-4.14,1.04-3.51,1.68-7.12,2.67-10.63.52-1.86.52-3.89,1.76-5.52l.14.1Z"/>
    <path class="cls-5" d="M129.5,91.3c-3.16,2.66-4.84,6.11-5.72,10.11-.58,2.65-1,5.36-2.14,7.87,0,0-.14-.1-.14-.1.57-5.51,1.66-10.88,4.69-15.64.74-1.15,1.55-2.33,3.16-2.38l.14.15Z"/>
    <path class="cls-5" d="M123.33,80.04c3.68-2.55,7.69-3.89,12.22-3.67,2.32.11,4.71-.49,6.84.94,0,0-.08.11-.08.11-.92-.03-1.86.06-2.75-.1-4.58-.86-8.9-.18-13.09,1.83-.94.45-1.88,1.07-3.01,1.04l-.13-.14Z"/>
    <path class="cls-7" d="M18.29,99.65c-.21-.72-.3-1.52-1.27-1.66,1.46-3.23,3.31-6.23,5.82-8.87-1.52,3.51-3.04,7.02-4.55,10.52Z"/>
    <path class="cls-5" d="M68.4,61.62c2.66-2.63,5.53-5,8.68-7.02,0,0,.16.16.16.16,0,.59.28.88.88.87,0,0,.15.17.15.17-3.19,2.04-6.38,4.08-9.57,6.11-.09-.11-.18-.21-.29-.3Z"/>
    <path class="cls-7" d="M14.45,129.96c-.82-1.26-.93-2.76-.91-4.13.05-3.85-.69-7.78.8-11.54.48,2.12-.14,4.23-.09,6.34.07,3.11.13,6.21.2,9.32Z"/>
    <path class="cls-10" d="M26.82,90.68c.19,3.8-1.65,6.69-4.16,9.28.97-3.28,2.31-6.39,4.16-9.28Z"/>
    <path class="cls-7" d="M9.3,118.44c-.15,0-.31,0-.46,0,.79-4.42,2.41-8.56,4.32-12.59.31.49.31.99.07,1.51-1.7,3.56-2.59,7.4-3.93,11.09Z"/>
    <path class="cls-5" d="M139.99,90.35c-3.67-1.63-7.15-1.15-10.48.95,0,0-.14-.15-.14-.15,2.61-3.17,8.03-3.64,10.74-.93l-.12.13Z"/>
    <path class="cls-7" d="M14.42,113.87c-.13-3.76,1.04-7.27,2.15-10.79.12-.38.39-.64.82-.68-.99,3.82-1.98,7.64-2.97,11.46Z"/>
    <path class="cls-9" d="M151.19,124.97c1.43-2.59,3.21-4.82,6.11-5.89-1.86,2.15-3.89,4.12-6.11,5.89Z"/>
    <path class="cls-3" d="M170.55,64.5c2-1.54,2.24-3.3,1.06-5.55-.49-.93-.83-2.15-.58-3.34,1.27,1.95,1.7,4.21,2.21,6.42.54,2.28-1.48,1.98-2.7,2.47Z"/>
    <path class="cls-3" d="M159.43,62.58c1.21.45.95,1.67,1.23,2.55.49,1.54,1.01,2.61,2.83,1.46.69-.44,1.48-.3,2.25-.26-.05.06-.09.14-.15.17q-4.79,2.33-6.15-3.92Z"/>
    <path class="cls-9" d="M192.26,61.68c-.56-.01-1.11-.02-1.67-.04.87-.41,1.73-.82,2.94-1.39-.17,2.41-.32,4.44-.47,6.48-1-1.57.33-3.5-.8-5.05Z"/>
    <path class="cls-5" d="M114.12,90.23c.89-2.34,2.27-4.35,4.13-6.03l.14.12c-.9,2.34-2.26,4.36-4.14,6.02l-.13-.12Z"/>
    <path class="cls-5" d="M152.41,32.94c-.12-.46-.25-.91-.37-1.37,1.85.72,3.49,1.77,4.82,3.39-1.48-.67-2.97-1.35-4.45-2.02Z"/>
    <path class="cls-1" d="M151.11,102.72q.05,3.35-2.88,3.16c.54-1.44,1.77-2.24,2.88-3.16Z"/>
    <path class="cls-5" d="M154.9,88.37c2.13,2.69-.72,3.66-1.81,5.24,0,0-.16-.15-.16-.15.02-1.88,2.48-2.85,1.84-4.97l.13-.12Z"/>
    <path class="cls-9" d="M15.28,160.47c1.83.65,3.09,1.86,3.7,3.72-1.47-1-2.69-2.26-3.7-3.72Z"/>
    <path class="cls-9" d="M159.16,117.21c.35-2.06,1.75-3.13,3.59-3.79-1.05,1.4-2.23,2.68-3.59,3.79Z"/>
    <path class="cls-7" d="M35.78,156.08c-2.05.01-3.92-.36-5.09-2.29,1.7.76,3.39,1.53,5.09,2.29Z"/>
    <path class="cls-9" d="M9.57,150.88c1.49,1.34,2.28,3.02,2.47,5-1.18-1.49-1.89-3.21-2.47-5Z"/>
    <path class="cls-5" d="M153.07,84.66c.93,1.08,1.66,2.26,1.83,3.71,0,0-.13.12-.13.12-1.29-.89-1.74-2.2-1.85-3.69l.15-.14Z"/>
    <path class="cls-7" d="M15.24,101.53c.03,1.74-.43,3.23-2.03,4.18.56-1.45,1.08-2.92,2.03-4.18Z"/>
    <path class="cls-5" d="M147.04,79.13c1.29.48,2.36,1.26,3.23,2.32,0,0-.11.13-.11.13-1.53-.15-2.47-1.1-3.25-2.31l.13-.14Z"/>
    <path class="cls-7" d="M90.59,148.37c-.31,1.18-1.71,1.05-2.28,1.92-.64-.02-1.27-.03-1.91-.05,1.31-.82,2.72-1.4,4.19-1.88Z"/>
    <path class="cls-5" d="M119.18,83.28c.75-.98,1.63-1.8,2.77-2.31,0,0,.14.14.14.14-.45,1.35-1.3,2.21-2.79,2.31l-.12-.14Z"/>
    <path class="cls-9" d="M93.4,164.17c.95-1.29,2.2-1.91,3.81-1.72-1.18.78-2.44,1.38-3.81,1.72Z"/>
    <path class="cls-7" d="M28.43,152.37c-1.59.08-2.69-.47-2.9-2.2.97.73,1.93,1.47,2.9,2.2Z"/>
    <path class="cls-9" d="M165.71,110.31c-.2-1.61.82-2.16,2.14-2.45-.55.96-1.29,1.75-2.14,2.45Z"/>
    <path class="cls-10" d="M32.03,103.3c-.15-1.36-.28-2.71,1.42-3.27-.28,1.18-.73,2.27-1.42,3.27Z"/>
    <path class="cls-5" d="M130.31,29.83c1.85,0,3.71-.01,5.56-.02-1.85,0-3.71.01-5.56.02Z"/>
    <path class="cls-7" d="M82.12,151.89c-.8,1.51-2.19,1.55-3.64,1.46,1.21-.49,2.43-.97,3.64-1.46Z"/>
    <path class="cls-9" d="M175.19,99.09c-.09-1.34.45-2.17,1.85-2.32-.46.9-1.08,1.67-1.85,2.32Z"/>
    <path class="cls-9" d="M173.32,101.37c-.06-1.32.47-2.16,1.87-2.29-.46.89-1.07,1.67-1.87,2.29Z"/>
    <path class="cls-5" d="M123.87,30.39c.99-1.02,2.09-.64,3.2-.27-1.07.09-2.13.18-3.2.27Z"/>
    <path class="cls-7" d="M101.61,142.73c-.44,1.39-1.55,1.53-2.76,1.49.8-.72,1.76-1.14,2.76-1.49Z"/>
    <path class="cls-3" d="M157.22,39.9c-1.22.08-2.29-.15-2.8-1.44,1.05.25,2.02.66,2.8,1.44Z"/>
    <path class="cls-3" d="M145.97,46.96c1.1-.07,2.32-.32,2.31,1.42-.88-.3-1.68-.73-2.31-1.42Z"/>
    <path class="cls-3" d="M171.06,55.64c-1.19-.59-1.48-1.61-1.39-2.83.78.79,1.21,1.74,1.39,2.83Z"/>
    <path class="cls-9" d="M145.65,130.06c.1-1.2.6-1.95,1.95-1.72-.53.71-1.17,1.3-1.95,1.72Z"/>
    <path class="cls-7" d="M18.63,141.94c-1.21-.56-1.47-1.6-1.4-2.81.81.77,1.24,1.72,1.4,2.81Z"/>
    <path class="cls-7" d="M15.89,135.48c-.95-.88-1.06-2.03-1-3.23.75.95.85,2.09,1,3.23Z"/>
    <path class="cls-9" d="M23.47,167.65c1.17-.27,2.02.03,2.31,1.31-.77-.43-1.54-.87-2.31-1.31Z"/>
    <path class="cls-3" d="M136.54,43.25c1.1.06,2.38-.5,3.06.93-1.08-.11-2.14-.31-3.06-.93Z"/>
    <path class="cls-3" d="M148.27,48.36c1.09-.16,1.89.06,1.89,1.38-.75-.29-1.39-.74-1.89-1.38Z"/>
    <path class="cls-5" d="M142.4,77.31c1.05-.06,1.98.26,2.81.89,0,0-.14.15-.14.15-1.01-.04-1.99-.16-2.75-.93l.08-.11Z"/>
    <path class="cls-9" d="M12.04,155.86c1.2.17,1.42.95,1.22,1.98-.57-.56-1.03-1.19-1.22-1.98Z"/>
    <path class="cls-7" d="M17.26,139.17c-1.25-.41-1.02-1.42-.93-2.36.66.65.78,1.51.93,2.36Z"/>
    <path class="cls-7" d="M17.34,102.41c-.22-1.11-.4-2.21.98-2.75-.33.92-.65,1.83-.98,2.75Z"/>
    <path class="cls-9" d="M177.03,96.78c-.08-1.03.14-1.83,1.39-1.85-.31.74-.76,1.36-1.39,1.85Z"/>
    <path class="cls-5" d="M151.66,82.83c.66.46,1.15,1.06,1.4,1.83,0,0-.15.14-.15.14-1.07-.16-1.35-.92-1.39-1.86l.13-.11Z"/>
    <path class="cls-9" d="M169.35,106.15c-.29-1.09.29-1.47,1.26-1.52-.42.51-.84,1.01-1.26,1.52Z"/>
    <path class="cls-3" d="M168.24,65.42c.43-1.18,1.42-.99,2.34-.95-.68.58-1.48.84-2.34.95Z"/>
    <path class="cls-9" d="M89.79,165.69c.47-1.06,1.34-1.14,2.32-.97-.67.57-1.48.81-2.32.97Z"/>
    <path class="cls-3" d="M97.08,46.87c.46-1.54,1.69-.68,2.6-.84-.78.54-1.67.75-2.6.84Z"/>
    <path class="cls-9" d="M171.67,103.38c-.31-1.09.24-1.47,1.23-1.51-.41.5-.82,1.01-1.23,1.51Z"/>
    <path class="cls-5" d="M78.15,54.74c.63.01,1.26.02,1.89.03-.46.56-1.08.85-1.77,1.03,0,0-.15-.17-.15-.17,0-.3.02-.6.02-.89h0Z"/>
    <path class="cls-3" d="M166.46,47.76c-1.01,0-1.54-.4-1.3-1.49.63.32,1.07.82,1.3,1.49Z"/>
    <path class="cls-9" d="M139.16,135.57c.04-.98.43-1.52,1.51-1.24-.39.55-.88.98-1.51,1.24Z"/>
    <path class="cls-7" d="M84.44,150.97c-.4,1.18-1.26,1.25-2.28.93.76-.31,1.52-.62,2.28-.93Z"/>
    <path class="cls-3" d="M165.9,66.33c.47-1.13,1.44-.99,2.38-.94-.68.6-1.49.87-2.38.94Z"/>
    <path class="cls-9" d="M97.2,162.47c.24-1.4,1.33-1.04,2.23-1.08-.63.59-1.41.87-2.23,1.08Z"/>
    <path class="cls-3" d="M144.13,46.03c.77.03,1.81-.45,1.86.96-.71-.15-1.35-.42-1.86-.96Z"/>
    <path class="cls-9" d="M106.39,157.8c.23-1.02.99-1.07,1.82-1.01-.49.55-1.11.86-1.82,1.01Z"/>
    <path class="cls-9" d="M119.49,150.06c-.05-1.27.86-1.11,1.66-1.12-.55.37-1.1.75-1.66,1.12Z"/>
    <path class="cls-7" d="M30.14,153.49c-.81,0-1.68.09-1.7-1.11.57.37,1.13.74,1.7,1.11Z"/>
    <path class="cls-3" d="M154.46,38.5c-.86.16-1.6.06-1.92-.91.75.07,1.41.34,1.92.91Z"/>
    <path class="cls-9" d="M114.35,153.26c.05-1.19.91-1.12,1.73-1.09-.45.57-1.08.85-1.73,1.09Z"/>
    <path class="cls-9" d="M112.01,154.63c.1-1.16.93-1.11,1.76-1.07-.47.55-1.09.85-1.76,1.07Z"/>
    <path class="cls-5" d="M145.21,78.19c.71.12,1.33.42,1.84.93,0,0-.13.14-.13.14-.7-.13-1.62.15-1.85-.92l.14-.15Z"/>
    <path class="cls-9" d="M182.59,89.43c.02-.38.03-.8.52-.88.63-.1.75.35.81.83-.45-.24-.89-.32-1.32.05Z"/>
    <path class="cls-7" d="M86.43,150.22c-.37.97-1.07,1.13-1.96.77.59-.42,1.22-.73,1.96-.77Z"/>
    <path class="cls-9" d="M104.58,158.76c.19-1.12.98-1.12,1.84-.99-.5.55-1.15.81-1.84.99Z"/>
    <path class="cls-9" d="M25.8,168.96c.9-.27,1.7-.32,1.83.93-.61-.31-1.22-.62-1.83-.93Z"/>
    <path class="cls-3" d="M168.69,51.04c-.96-.05-.95-.73-.91-1.42.5.35.79.83.91,1.42Z"/>
    <path class="cls-9" d="M183.91,89.38c.7-.02,1.4-.02,1.34.99-.56-.17-1.02-.49-1.34-.99Z"/>
    <path class="cls-7" d="M14.9,132.27c-.84-.64-.4-1.54-.47-2.33.86.63.4,1.54.47,2.33Z"/>
    <path class="cls-5" d="M68.69,61.92c-.41.38-.75.95-1.6.45.48-.28.89-.52,1.3-.75.11.09.21.19.29.3Z"/>
    <path class="cls-9" d="M22.08,166.72c.85-.32,1.37-.14,1.31.89-.44-.3-.87-.59-1.31-.89Z"/>
    <path class="cls-3" d="M159.51,41.31c-.72.06-1.41.09-1.42-.94.6.13,1.07.44,1.42.94Z"/>
    <path class="cls-9" d="M121.14,148.94c.02-1,.71-.97,1.42-.91-.35.49-.84.77-1.42.91Z"/>
    <path class="cls-3" d="M156.14,56.17c1.04-.01,1.01.68.94,1.41-.52-.33-.79-.83-.94-1.41Z"/>
    <path class="cls-9" d="M109.66,155.99c.16-.85.6-1.2,1.45-.8-.48.27-.97.54-1.45.8Z"/>
    <path class="cls-9" d="M13.27,157.86c.94,0,1.14.54.98,1.34-.49-.33-.79-.8-.98-1.34Z"/>
    <path class="cls-9" d="M125.78,145.75c-.04-1.03.66-1,1.37-.96-.34.49-.81.79-1.37.96Z"/>
    <path class="cls-9" d="M118.07,150.96c.02-.96.51-1.2,1.36-.87-.45.29-.91.58-1.36.87Z"/>
    <path class="cls-9" d="M99.42,161.4c.09-1.06.75-1,1.51-.76-.43.4-.91.7-1.51.76Z"/>
    <path class="cls-9" d="M127.15,144.8c-.01-.97.66-.98,1.35-.96-.34.48-.8.79-1.35.96Z"/>
    <path class="cls-5" d="M121.95,80.97c.35-.48.8-.81,1.38-.93,0,0,.13.14.13.14-.12.82-.75.88-1.38.93l-.14-.14Z"/>
    <path class="cls-3" d="M167.8,49.64c-.98,0-.98-.69-.95-1.39.5.34.81.8.95,1.39Z"/>
    <path class="cls-9" d="M116.63,151.86c.09-.9.57-1.17,1.41-.87-.47.29-.94.58-1.41.87Z"/>
    <path class="cls-3" d="M160.54,42.08c-.74.25-1.05-.07-1.05-.79.48.09.82.37,1.05.79Z"/>
    <path class="cls-5" d="M145.29,30.86c.62-.2,1.13,0,1.58.42-.58.05-1.14.06-1.58-.42Z"/>
    <path class="cls-5" d="M118.47,31.23c.39-.25.73-.75,1.23-.17-.41.06-.82.11-1.23.17Z"/>
    <path class="cls-5" d="M150.58,30.77c-.51-.03-1.07.06-1.3-.58.54-.04.95.2,1.3.58Z"/>
    <path class="cls-9" d="M179.03,94.14c-.22-.71.09-1.03.79-1.05-.26.35-.53.7-.79,1.05Z"/>
    <path class="cls-9" d="M187.95,92.27c.66-.17,1,.1,1.06.77-.47-.1-.81-.37-1.06-.77Z"/>
    <path class="cls-9" d="M186.07,91c.71-.31,1.02,0,1.07.7-.36-.23-.71-.47-1.07-.7Z"/>
    <path class="cls-9" d="M181.83,90.46c-.25-.73.06-1.04.77-1.05-.26.35-.52.7-.77,1.05Z"/>
    <path class="cls-9" d="M142.4,132.85c0-.7.3-1.04,1.03-.87-.34.29-.68.58-1.03.87Z"/>
    <path class="cls-9" d="M136.87,137.44c-.02-.71.3-1.01,1.02-.84-.34.28-.68.56-1.02.84Z"/>
    <path class="cls-9" d="M134.54,139.26c.01-.7.34-.99,1.04-.81-.35.27-.69.54-1.04.81Z"/>
    <path class="cls-9" d="M132.71,140.67c0-.72.31-1.03,1.04-.77-.35.26-.69.51-1.04.77Z"/>
    <path class="cls-9" d="M130.37,142.47c.03-.68.36-.97,1.04-.8-.35.27-.69.54-1.04.8Z"/>
    <path class="cls-9" d="M128.51,143.83c.05-.68.39-.96,1.07-.76-.36.25-.71.51-1.07.76Z"/>
    <path class="cls-9" d="M123.92,147.11c.03-.71.33-1.03,1.06-.73-.35.24-.71.49-1.06.73Z"/>
    <path class="cls-3" d="M154.75,54.33c.73-.01,1.04.3.83,1.04-.44-.22-.7-.57-.83-1.04Z"/>
    <path class="cls-5" d="M78.61,53.73c-.15.34-.31.67-.46,1.01,0,0,0,0,0,0-.3,0-.6.01-.9.02,0,0-.16-.16-.16-.16.42-.45.82-.93,1.53-.87Z"/>
    <path class="cls-7" d="M78.48,153.31c-.21.87-.82.64-1.39.5.46-.17.93-.34,1.39-.5Z"/>
    <path class="cls-7" d="M77.11,153.76c-.26.9-.97.6-1.58.6.42-.49,1.03-.46,1.58-.6Z"/>
    <path class="cls-5" d="M145.81,28.81c-.46.08-.9.08-1.14-.43.46-.07.85.05,1.14.43Z"/>
    <path class="cls-5" d="M148.65,29.87c-.45-.04-.93,0-1.2-.48.4.16.8.32,1.2.48Z"/>
    <path class="cls-10" d="M22.2,101.3c.03.55.16,1.13-.51,1.42.05-.52.03-1.06.51-1.42Z"/>
    <path class="cls-7" d="M94.67,146.4c-.13.79-.77.61-1.28.66.43-.22.85-.44,1.28-.66Z"/>
    <path class="cls-7" d="M23.66,148.43c-.64-.01-.94-.34-.92-.97.31.32.62.65.92.97Z"/>
    <path class="cls-9" d="M18.96,164.18c.61-.04.95.24.99.85-.33-.28-.66-.57-.99-.85Z"/>
    <path class="cls-9" d="M92.08,164.75c.2-.74.81-.59,1.34-.6-.34.44-.84.51-1.34.6Z"/>
    <path class="cls-7" d="M16.37,136.85c-.7-.28-.56-.87-.51-1.42.59.32.46.9.51,1.42Z"/>
    <path class="cls-3" d="M140.91,44.63c.55-.02,1.15-.17,1.39.56-.51-.07-1.04-.09-1.39-.56Z"/>
    <path class="cls-7" d="M16.7,98.59c-.04.51.16,1.16-.68,1.24.22-.41.45-.83.68-1.24Z"/>
    <path class="cls-10" d="M33.85,99.12c0-.53-.23-1.19.63-1.31-.1.49-.17,1-.63,1.31Z"/>
    <path class="cls-7" d="M91.86,147.75c-.12.87-.78.63-1.31.64.32-.45.84-.5,1.31-.64Z"/>
    <path class="cls-10" d="M22.68,99.93c0,.53.13,1.11-.51,1.4.02-.52.06-1.04.51-1.4Z"/>
    <path class="cls-5" d="M138.85,29.9c.59-.07,1.2-.21,1.67.32-.59.06-1.18.13-1.67-.32Z"/>
    <path class="cls-9" d="M138.43,136.21c-.09-.6.31-.64.74-.65-.25.22-.5.43-.74.65Z"/>
    <path class="cls-9" d="M102.77,159.72c.07-.61.45-.62.92-.5-.31.17-.61.33-.92.5Z"/>
    <path class="cls-9" d="M14.63,159.74c.59-.08.64.32.66.75-.22-.25-.44-.5-.66-.75Z"/>
    <path class="cls-9" d="M101.85,160.19c.07-.62.45-.62.92-.48-.31.16-.61.32-.92.48Z"/>
    <path class="cls-7" d="M92.82,147.32c-.1.6-.48.64-.96.47.32-.16.64-.31.96-.47Z"/>
    <path class="cls-9" d="M100.93,160.65c.06-.62.45-.63.91-.48-.3.16-.61.32-.91.48Z"/>
    <path class="cls-7" d="M98.89,144.18c-.15.48-.53.54-.95.52.21-.37.57-.47.95-.52Z"/>
    <path class="cls-3" d="M155.56,55.32c.57.04.62.43.6.87-.37-.17-.54-.49-.6-.87Z"/>
    <path class="cls-7" d="M20.12,144.17c-.55-.06-.61-.44-.58-.88.19.29.39.59.58.88Z"/>
    <path class="cls-10" d="M33.42,100.07c-.06-.43-.01-.81.46-.99-.02.39-.06.77-.46.99Z"/>
    <path class="cls-9" d="M129.55,143.08c.03-.53.4-.61.82-.62-.27.21-.55.41-.82.62Z"/>
    <path class="cls-7" d="M102.51,142.23c-.06.6-.46.64-.93.54.31-.18.62-.36.93-.54Z"/>
    <path class="cls-7" d="M108.57,138.61c-.11.51-.49.57-.92.57.31-.19.61-.38.92-.57Z"/>
    <path class="cls-7" d="M109.38,138.05c.01.63-.4.66-.86.6.29-.2.58-.4.86-.6Z"/>
    <path class="cls-3" d="M158.9,61.22c.52.24.52.69.49,1.16-.4-.29-.47-.71-.49-1.16Z"/>
    <path class="cls-11" d="M113.28,135.52c.25.76-.34.31-.56.39.19-.13.38-.26.56-.39Z"/>
    <path class="cls-9" d="M19.97,165.05c.4.03.74.15.8.62-.27-.21-.53-.41-.8-.62Z"/>
    <path class="cls-9" d="M123.07,147.69c.05-.54.43-.61.86-.59-.29.2-.57.4-.86.59Z"/>
    <path class="cls-3" d="M158.47,60.29c.45.19.5.56.46.98-.41-.21-.45-.59-.46-.98Z"/>
    <path class="cls-9" d="M21.26,166.04c.44,0,.84.02.77.63-.26-.21-.52-.42-.77-.63Z"/>
    <path class="cls-9" d="M111.18,155.16c-.05-.68.36-.65.83-.53-.28.18-.55.35-.83.53Z"/>
    <path class="cls-10" d="M29.14,86.53c.02.43-.05.8-.54.93.05-.39.16-.74.54-.93Z"/>
    <path class="cls-5" d="M80.57,54.47c.1-.61.54-.62,1.01-.57-.34.19-.68.38-1.01.57Z"/>
    <path class="cls-7" d="M19.24,142.72c-.59.03-.64-.37-.64-.81.4.13.53.45.64.81Z"/>
    <path class="cls-7" d="M103.97,141.41c-.14.48-.52.55-.94.54.2-.38.55-.48.94-.54Z"/>
    <path class="cls-3" d="M153.71,53.02c.56.02.62.4.63.83-.36-.16-.57-.44-.63-.83Z"/>
    <path class="cls-9" d="M131.38,141.68c.04-.51.4-.6.82-.61-.27.2-.55.41-.82.61Z"/>
    <path class="cls-7" d="M104.84,140.87c-.08.56-.47.61-.92.57.31-.19.61-.38.92-.57Z"/>
    <path class="cls-3" d="M158.02,59.37c.43.19.49.56.47.96-.37-.22-.46-.57-.47-.96Z"/>
    <path class="cls-9" d="M136.13,138.05c-.09-.61.32-.64.75-.63-.25.21-.5.42-.75.63Z"/>
    <path class="cls-10" d="M27.79,88.89c-.01.39-.1.74-.5.92.02-.39.16-.71.5-.92Z"/>
    <path class="cls-3" d="M157.55,58.45c.42.19.5.54.49.95-.36-.22-.47-.56-.49-.95Z"/>
    <path class="cls-10" d="M31.65,104.25c-.14-.45-.09-.83.43-1-.03.38-.06.77-.43,1Z"/>
    <path class="cls-10" d="M28.63,87.42c.06.45,0,.84-.54.95.06-.38.14-.75.54-.95Z"/>
    <path class="cls-3" d="M169.71,52.86c-.48-.15-.55-.52-.52-.95.39.2.49.55.52.95Z"/>
    <path class="cls-9" d="M143.93,131.57c-.05-.56.33-.63.75-.65-.25.22-.5.43-.75.65Z"/>
    <path class="cls-3" d="M169.21,51.95c-.42-.17-.51-.52-.52-.92.35.21.5.53.52.92Z"/>
    <path class="cls-3" d="M151.14,50.58c.41.03.78.12.82.63-.39-.06-.66-.27-.82-.63Z"/>
    <path class="cls-10" d="M27.31,89.78c0,.41-.06.78-.51.94.03-.39.14-.73.51-.94Z"/>
    <path class="cls-9" d="M181.19,91.25c0-.43.06-.82.63-.8-.21.27-.42.53-.63.8Z"/>
    <path class="cls-9" d="M185.24,90.35c.44-.02.84.02.8.62-.27-.21-.53-.41-.8-.62Z"/>
    <path class="cls-9" d="M125.01,146.35c-.04-.6.36-.63.79-.62-.26.21-.53.41-.79.62Z"/>
    <path class="cls-9" d="M187.13,91.7c.42,0,.79.08.85.6-.28-.2-.56-.4-.85-.6Z"/>
    <path class="cls-9" d="M149.11,126.98c-.16-.61.26-.64.67-.67-.22.22-.45.45-.67.67Z"/>
    <path class="cls-3" d="M143.19,45.58c.43-.06.81,0,.98.48-.39-.03-.77-.08-.98-.48Z"/>
    <path class="cls-3" d="M142.25,45.15c.45-.09.83-.04,1,.46-.39-.03-.78-.07-1-.46Z"/>
    <path class="cls-3" d="M157.05,57.54c.46.16.53.53.52.94-.37-.2-.48-.55-.52-.94Z"/>
    <path class="cls-3" d="M139.76,44.19c.47-.04.93-.04,1.19.47-.45-.02-.9-.05-1.19-.47Z"/>
    <path class="cls-9" d="M179.81,93.1c0-.43.06-.82.64-.8-.21.27-.42.53-.64.8Z"/>
    <path class="cls-7" d="M106.28,140.01c-.12.49-.5.56-.92.56.19-.38.54-.49.92-.56Z"/>
    <path class="cls-3" d="M98.46,42.23c-.19.45-.56.5-.98.47.22-.39.58-.46.98-.47Z"/>
    <path class="cls-7" d="M96.15,145.63c-.18.41-.54.48-.94.49.31-.16.63-.32.94-.49Z"/>
    <path class="cls-10" d="M36.6,93.56c0-.42.08-.79.55-.94-.07.38-.16.74-.55.94Z"/>
    <path class="cls-7" d="M107.12,139.47c-.04.59-.44.63-.9.59.3-.2.6-.39.9-.59Z"/>
    <path class="cls-9" d="M189.03,93.05c.4.02.75.13.83.6-.28-.2-.56-.4-.83-.6Z"/>
    <path class="cls-7" d="M97.07,145.16c-.17.44-.55.49-.95.49.32-.16.63-.33.95-.49Z"/>
    <path class="cls-10" d="M36.13,94.47c0-.4.07-.76.49-.95-.02.39-.12.74-.49.95Z"/>
    <path class="cls-9" d="M178.42,94.94c0-.43.07-.81.63-.82-.21.27-.42.55-.63.82Z"/>
    <path class="cls-10" d="M35.67,95.4c0-.4.07-.75.48-.95-.01.39-.13.73-.48.95Z"/>
    <path class="cls-10" d="M35.21,96.32c0-.4.06-.76.47-.95,0,.39-.11.73-.47.95Z"/>
    <path class="cls-10" d="M34.75,97.24c0-.4.07-.76.48-.95-.01.39-.12.73-.48.95Z"/>
    <path class="cls-9" d="M168.69,106.9c.03-.42.11-.79.65-.77-.22.26-.43.51-.65.77Z"/>
    <path class="cls-9" d="M108.19,156.8c.18-.4.52-.5.91-.5-.3.17-.61.33-.91.5Z"/>
    <path class="cls-9" d="M133.76,139.88c-.03-.57.36-.63.78-.63-.26.21-.52.42-.78.63Z"/>
    <path class="cls-3" d="M158.12,40.39c-.43.02-.8-.05-.94-.53.4.03.74.15.94.53Z"/>
    <path class="cls-7" d="M21.49,146.02c-.51-.04-.6-.4-.62-.81.21.27.42.54.62.81Z"/>
    <path class="cls-7" d="M97.98,144.67c-.16.46-.54.51-.95.5.22-.36.56-.47.95-.5Z"/>
    <path class="cls-10" d="M29.63,85.66c-.01.4-.1.75-.52.91.03-.39.17-.71.52-.91Z"/>
    <path class="cls-9" d="M140.67,134.33c-.02-.54.34-.62.76-.65-.25.22-.51.43-.76.65Z"/>
    <path class="cls-9" d="M103.68,159.25c.08-.58.46-.61.92-.51-.31.17-.61.34-.92.51Z"/>
    <path class="cls-9" d="M164.54,111.54c.04-.42.09-.82.68-.7-.23.23-.45.47-.68.7Z"/>
    <path class="cls-5" d="M140.62,30.23c.29.02.58.05.86.07-.29-.02-.58-.05-.86-.07Z"/>
    <path class="cls-13" d="M56.8,54.11c-.05.53-.43.6-.85.62.17-.37.45-.57.85-.62Z"/>
    <path class="cls-7" d="M15.76,100.41c.02.4-.08.75-.46.96.15-.32.31-.64.46-.96Z"/>
    <path class="cls-9" d="M171.01,104.15c.02-.42.1-.8.66-.78-.22.26-.44.52-.66.78Z"/>
    <path class="cls-3" d="M161.36,42.69c-.44.02-.84-.03-.86-.61.39.06.69.24.86.61Z"/>
    <path class="cls-13" d="M57.78,53.2c-.18.19-.36.38-.54.57.18-.19.36-.38.54-.57Z"/>
    <path class="cls-9" d="M141.44,133.67c.17-.14.34-.29.51-.43-.17.15-.34.29-.51.43Z"/>
    <path class="cls-10" d="M28.16,88.3c-.12.2-.25.39-.37.59.12-.2.25-.39.37-.59Z"/>
    <path class="cls-3" d="M153.29,52.53c.32.03.49.2.48.53-.16-.18-.32-.35-.48-.53Z"/>
    <path class="cls-7" d="M19.56,143.32c-.28-.1-.42-.29-.35-.6.12.2.23.4.35.6Z"/>
    <polygon class="cls-5" points="141.81 27.54 141.62 27.5 141.72 27.43 141.81 27.54"/>
    <path class="cls-3" d="M152.84,52.06c.31.03.48.2.51.51-.17-.17-.34-.34-.51-.51Z"/>
    <path class="cls-9" d="M143.41,131.98c.03-.32.19-.47.52-.42-.17.14-.35.28-.52.42Z"/>
    <path class="cls-3" d="M152.38,51.6c.31.03.48.2.52.51-.17-.17-.34-.34-.52-.51Z"/>
    <path class="cls-5" d="M142.66,27.86c-.26-.1-.52-.21-.78-.31.26.1.52.21.78.31Z"/>
    <path class="cls-9" d="M144.68,130.92c.17-.15.33-.3.5-.45-.17.15-.33.3-.5.45Z"/>
    <path class="cls-1" d="M152.95,100.81c-.17.17-.33.35-.5.52.17-.17.33-.35.5-.52Z"/>
    <path class="cls-3" d="M151.91,51.15c.32.02.49.18.52.5-.17-.17-.35-.33-.52-.5Z"/>
    <path class="cls-1" d="M148.3,105.86c-.17.18-.33.35-.5.53.17-.18.34-.36.5-.53Z"/>
    <path class="cls-3" d="M150.64,50.14c.17.15.33.29.5.44-.17-.15-.33-.29-.5-.44Z"/>
    <path class="cls-9" d="M145.16,130.5c.17-.16.34-.31.52-.47-.17.16-.34.31-.52.47Z"/>
    <path class="cls-1" d="M147.85,106.34c-.17.18-.33.35-.5.53.17-.18.33-.35.5-.53Z"/>
    <path class="cls-3" d="M150.13,49.7c.18.15.35.31.53.46-.18-.15-.35-.31-.53-.46Z"/>
    <path class="cls-5" d="M150.27,81.45c.16.15.32.3.48.45,0,0-.12.12-.12.12-.16-.15-.31-.29-.47-.44l.11-.13Z"/>
    <path class="cls-1" d="M147.4,106.82c-.17.17-.33.35-.5.52.17-.17.33-.35.5-.52Z"/>
    <path class="cls-1" d="M146.95,107.29c-.17.17-.33.34-.5.51.17-.17.33-.34.5-.51Z"/>
    <path class="cls-9" d="M147.62,128.32c-.02-.34.13-.48.47-.42-.16.14-.32.28-.47.42Z"/>
    <path class="cls-9" d="M180.78,91.79c.14-.18.29-.37.43-.55-.14.18-.29.37-.43.55Z"/>
    <path class="cls-3" d="M166.86,48.27c-.15-.18-.3-.36-.45-.54.15.18.3.36.45.54Z"/>
    <path class="cls-9" d="M148.13,127.87c-.06-.35.08-.49.43-.4-.14.13-.29.27-.43.4Z"/>
    <path class="cls-1" d="M146.49,107.76c-.16.17-.33.34-.49.51.16-.17.33-.34.49-.51Z"/>
    <path class="cls-9" d="M180.43,92.31c-.06-.32.09-.5.39-.57-.13.19-.26.38-.39.57Z"/>
    <path class="cls-9" d="M14.24,159.18c.32.03.47.2.39.53-.13-.18-.26-.35-.39-.53Z"/>
    <path class="cls-9" d="M148.63,127.41c-.08-.35.04-.48.39-.37-.13.12-.26.25-.39.37Z"/>
    <path class="cls-3" d="M165.15,46.31c-.33,0-.5-.17-.5-.5.17.17.34.33.5.5Z"/>
    <path class="cls-10" d="M125.63,126.6c-.04.32-.21.48-.54.45.18-.15.36-.3.54-.45Z"/>
    <path class="cls-7" d="M25.92,144.29c.16.17.32.34.48.51-.16-.17-.32-.34-.48-.51Z"/>
    <path class="cls-10" d="M126.19,126.29c-.2.12-.4.24-.6.36.09-.3.28-.44.6-.36Z"/>
    <path class="cls-3" d="M164.69,45.84c-.33,0-.5-.16-.5-.5.17.17.34.33.5.5Z"/>
    <path class="cls-7" d="M20.48,144.71c-.14-.19-.28-.38-.41-.57.14.19.28.38.41.57Z"/>
    <path class="cls-3" d="M164.23,45.38c-.33,0-.5-.16-.51-.5.17.16.34.33.51.5Z"/>
    <path class="cls-9" d="M116.06,152.19c.2-.12.39-.25.59-.37-.2.12-.39.25-.59.37Z"/>
    <path class="cls-3" d="M163.77,44.92c-.33,0-.5-.16-.52-.49.17.16.34.33.52.49Z"/>
    <path class="cls-5" d="M150.75,81.89c.15.15.31.31.46.46,0,0-.12.12-.12.12-.15-.15-.31-.31-.46-.46l.12-.12Z"/>
    <path class="cls-3" d="M163.3,44.47c-.32,0-.5-.17-.52-.49.17.16.35.33.52.49Z"/>
    <path class="cls-1" d="M152.04,101.77c-.16.17-.32.33-.49.5.16-.17.32-.33.49-.5Z"/>
    <path class="cls-1" d="M151.58,102.24c-.16.16-.32.33-.48.49.16-.16.32-.33.48-.49Z"/>
    <path class="cls-3" d="M162.83,44.02c-.31-.02-.49-.19-.53-.5.18.16.35.33.53.5Z"/>
    <path class="cls-3" d="M162.35,43.58c-.18-.16-.36-.33-.54-.49.18.16.36.33.54.49Z"/>
    <path class="cls-9" d="M20.73,165.63c.19.15.37.29.56.44-.19-.15-.37-.29-.56-.44Z"/>
    <path class="cls-3" d="M161.86,43.14c-.18-.16-.36-.31-.54-.47.18.16.36.31.54.47Z"/>
    <path class="cls-7" d="M103.07,141.93c-.2.13-.4.25-.61.38.2-.13.4-.25.61-.38Z"/>
    <path class="cls-13" d="M62.92,60.8c.17-.16.34-.33.51-.49-.17.16-.34.33-.51.49Z"/>
    <path class="cls-9" d="M150.7,125.43c.17-.16.34-.32.51-.49-.17.16-.34.32-.51.49Z"/>
    <path class="cls-13" d="M63.39,60.35c.19-.17.38-.33.57-.5-.19.17-.38.33-.57.5Z"/>
    <path class="cls-5" d="M151.21,82.36c.15.16.3.32.45.47,0,0-.13.11-.13.11-.15-.16-.29-.31-.44-.47l.12-.12Z"/>
    <path class="cls-9" d="M132.21,141.07c.17-.14.35-.28.52-.43-.17.14-.35.28-.52.43Z"/>
    <path class="cls-7" d="M93.39,147.05c-.2.11-.41.22-.62.34.2-.11.41-.22.62-.34Z"/>
    <path class="cls-1" d="M44.14,81.69c-.05-.33.11-.5.42-.55-.14.18-.28.37-.42.55Z"/>
    <path class="cls-9" d="M113.75,153.58c.11-.27.3-.4.6-.35-.2.12-.4.23-.6.35Z"/>
    <path class="cls-7" d="M105.38,140.55c-.2.13-.4.26-.6.4.2-.13.4-.26.6-.4Z"/>
    <path class="cls-9" d="M109.1,156.3c.2-.12.4-.24.6-.36-.2.12-.4.24-.6.36Z"/>
    <path class="cls-7" d="M107.69,139.15c-.2.13-.4.25-.6.38.2-.13.4-.25.6-.38Z"/>
    <path class="cls-9" d="M157.29,119.07c0-.32.16-.48.48-.48-.16.16-.32.32-.48.48Z"/>
    <path class="cls-9" d="M157.75,118.61c0-.32.16-.48.48-.48-.16.16-.32.32-.48.48Z"/>
    <path class="cls-9" d="M158.21,118.14c0-.32.16-.48.48-.48-.16.16-.32.32-.48.48Z"/>
    <path class="cls-5" d="M118.71,83.74c.16-.15.31-.31.47-.46,0,0,.12.14.12.14-.16.15-.31.3-.47.44l-.12-.12Z"/>
    <path class="cls-9" d="M158.67,117.68c0-.32.16-.48.48-.48-.16.16-.32.32-.48.48Z"/>
    <path class="cls-1" d="M152.49,101.29c-.16.17-.33.34-.49.51.16-.17.33-.34.49-.51Z"/>
    <path class="cls-7" d="M30.72,153.84c-.2-.12-.4-.24-.6-.35.2.12.4.24.6.35Z"/>
    <path class="cls-13" d="M55,55.57c-.17.17-.35.34-.52.51.17-.17.35-.34.52-.51Z"/>
    <path class="cls-10" d="M34.43,97.82c.11-.2.22-.4.33-.6-.11.2-.22.4-.33.6Z"/>
    <path class="cls-13" d="M55.49,55.14c-.18.16-.35.32-.53.49.18-.16.35-.32.53-.49Z"/>
    <path class="cls-7" d="M22.35,147.02c-.16-.18-.33-.36-.49-.54.16.18.33.36.49.54Z"/>
    <path class="cls-7" d="M17.05,97.99c-.12.2-.23.4-.35.59.12-.2.23-.4.35-.59Z"/>
    <path class="cls-9" d="M135.57,138.45c.02-.32.18-.47.51-.38-.17.13-.34.25-.51.38Z"/>
    <path class="cls-7" d="M26.79,145.23c.18.17.35.34.53.51-.18-.17-.35-.34-.53-.51Z"/>
    <path class="cls-5" d="M151.26,32.54c.15.01.3.04.44.08-.15-.03-.3-.06-.44-.08Z"/>
    <polygon class="cls-5" points="149.82 32.1 150.04 32.14 149.92 32.21 149.82 32.1"/>
    <path class="cls-1" d="M44.5,81.17c.17-.21.34-.43.51-.65-.17.21-.34.43-.51.65Z"/>
    <path class="cls-5" d="M148.98,31.77c.26.11.52.21.77.32-.26-.11-.52-.21-.77-.32Z"/>
    <path class="cls-9" d="M172.88,101.88c.15-.17.29-.34.44-.51-.15.17-.29.34-.44.51Z"/>
    <path class="cls-7" d="M109.97,137.68c-.08.3-.27.48-.6.46.2-.15.4-.31.6-.46Z"/>
    <path class="cls-13" d="M55.96,54.71c-.17.15-.34.31-.52.46.17-.15.34-.31.52-.46Z"/>
    <path class="cls-5" d="M143.83,30.71c.13,0,.26.01.39.04-.13-.01-.26-.03-.39-.04Z"/>
    <path class="cls-7" d="M20.87,145.2c-.14-.18-.28-.36-.42-.53.14.18.28.36.42.53Z"/>
    <path class="cls-9" d="M162.73,113.44c.17-.17.34-.34.51-.51-.17.17-.34.34-.51.51Z"/>
    <path class="cls-5" d="M121.3,30.75c.08-.02.15-.03.23-.02,0,0-.12.09-.12.09l-.11-.07Z"/>
    <path class="cls-5" d="M118.25,84.2c.15-.15.31-.31.46-.46,0,0,.12.12.12.12-.15.15-.3.31-.44.46,0,0-.14-.12-.14-.12Z"/>
    <path class="cls-9" d="M137.88,136.61c.02-.33.18-.47.52-.39-.17.13-.34.26-.52.39Z"/>
    <path class="cls-9" d="M163.63,112.5c.16-.17.32-.33.48-.5-.16.17-.32.33-.48.5Z"/>
    <path class="cls-7" d="M16.05,99.81c-.1.2-.2.41-.3.61.1-.2.2-.41.3-.61Z"/>
    <path class="cls-10" d="M30.06,84.98c-.14.23-.28.46-.42.68.14-.23.28-.46.42-.68Z"/>
    <path class="cls-5" d="M80.01,54.78c.2-.12.39-.24.59-.36-.2.12-.39.24-.59.36Z"/>
    <path class="cls-9" d="M165.26,110.79c-.09-.34.05-.48.39-.44-.13.15-.26.29-.39.44Z"/>
    <path class="cls-3" d="M154.33,53.83c.16.17.31.35.47.52-.16-.17-.31-.35-.47-.52Z"/>
    <path class="cls-1" d="M144.65,109.63c-.16.16-.33.32-.49.49.16-.16.33-.32.49-.49Z"/>
    <path class="cls-1" d="M145.11,109.17c-.16.16-.32.32-.49.49.16-.16.32-.32.49-.49Z"/>
    <path class="cls-7" d="M95.23,146.11c-.2.12-.41.24-.61.36.2-.12.41-.24.61-.36Z"/>
    <path class="cls-9" d="M122.53,148.05c.19-.13.38-.27.58-.4-.19.13-.38.26-.58.4Z"/>
    <path class="cls-7" d="M21.91,146.52c-.3-.06-.45-.24-.46-.54.15.18.31.36.46.54Z"/>
    <path class="cls-1" d="M145.57,108.7c-.16.16-.32.33-.49.49.16-.16.32-.33.49-.49Z"/>
    <path class="cls-1" d="M146.03,108.23c-.16.17-.33.33-.49.5.16-.17.33-.33.49-.5Z"/>
    <path class="cls-1" d="M153.4,100.22c-.17.22-.33.44-.5.66.17-.22.33-.44.5-.66Z"/>
    <path class="cls-13" d="M57.28,53.68c-.05.31-.22.48-.54.5.18-.17.36-.33.54-.5Z"/>
    <path class="cls-2" d="M118.39,84.33c.15-.16.3-.31.44-.46.16-.15.31-.3.47-.44,1.49-.1,2.34-.96,2.79-2.31.63-.05,1.26-.11,1.38-.93,1.13.03,2.07-.59,3.01-1.04,4.18-2.02,8.51-2.69,13.09-1.83.89.17,1.83.08,2.75.1.76.77,1.74.89,2.75.93.23,1.08,1.14.79,1.85.92.77,1.2,1.72,2.16,3.25,2.31.16.15.31.29.47.44.15.15.31.31.46.46.15.16.29.31.44.47.04.94.31,1.7,1.39,1.86.11,1.48.57,2.79,1.85,3.69.63,2.12-1.82,3.1-1.84,4.97-1.97.65-2.75,2.53-4.03,3.89-.78.83-1.59,1.65-2.43,2.43-.47.43-.83,1.29-1.67.85-.79-.41-.43-1.12-.31-1.81.56-3.45-1.71-7.84-4.38-8.61-2.71-2.71-8.12-2.24-10.74.93-1.61.05-2.43,1.22-3.16,2.38-3.04,4.76-4.13,10.13-4.69,15.64-1.24,1.63-1.24,3.67-1.76,5.52-.99,3.52-1.63,7.12-2.67,10.63-.58,1.97-2.85,2.31-3.42,4.14-.83-.04-1.44.43-2.07.87-1.26.87-2.51,1.77-3.83,2.53-1.09.63-2.21,1.81-3.55,1.01-1.48-.89-.39-2.33-.12-3.35,1.53-5.73,2.58-11.59,4.3-17.28,1.25-4.12,1.98-8.4,3.04-12.58.87-3.46,1.88-6.88,2.83-10.31,1.88-1.66,3.24-3.69,4.14-6.02Z"/>
    <path class="cls-3" d="M77.24,54.76c.3,0,.6-.01.9-.02,0,.3-.02.6-.02.89-.59,0-.88-.29-.88-.87Z"/>
  </g>
</svg>